G04 #@! TF.GenerationSoftware,KiCad,Pcbnew,(5.1.9)-1*
G04 #@! TF.CreationDate,2021-05-12T14:45:45+02:00*
G04 #@! TF.ProjectId,RotPad,526f7450-6164-42e6-9b69-6361645f7063,rev?*
G04 #@! TF.SameCoordinates,Original*
G04 #@! TF.FileFunction,Paste,Bot*
G04 #@! TF.FilePolarity,Positive*
%FSLAX46Y46*%
G04 Gerber Fmt 4.6, Leading zero omitted, Abs format (unit mm)*
G04 Created by KiCad (PCBNEW (5.1.9)-1) date 2021-05-12 14:45:45*
%MOMM*%
%LPD*%
G01*
G04 APERTURE LIST*
%ADD10R,1.500000X1.000000*%
%ADD11R,1.200000X1.400000*%
%ADD12R,1.000000X1.700000*%
G04 APERTURE END LIST*
D10*
X72157800Y-115099100D03*
X72157800Y-111899100D03*
X77057800Y-115099100D03*
X77057800Y-111899100D03*
X71364100Y-143672300D03*
X71364100Y-140472300D03*
X76264100Y-143672300D03*
X76264100Y-140472300D03*
D11*
X154090400Y-134929000D03*
X150690400Y-134929000D03*
X102843600Y-61114900D03*
X99443600Y-61114900D03*
D10*
X108668000Y-128592000D03*
X108668000Y-125392000D03*
X113568000Y-128592000D03*
X113568000Y-125392000D03*
D11*
X161577400Y-61114900D03*
X158177400Y-61114900D03*
X141391200Y-142866000D03*
X137991200Y-142866000D03*
X112818000Y-142866000D03*
X109418000Y-142866000D03*
X141391200Y-123817200D03*
X137991200Y-123817200D03*
X122342400Y-123817200D03*
X118942400Y-123817200D03*
X103293600Y-123817200D03*
X99893600Y-123817200D03*
X160440000Y-104768400D03*
X157040000Y-104768400D03*
X141391200Y-104768400D03*
X137991200Y-104768400D03*
X122342400Y-104768400D03*
X118942400Y-104768400D03*
X103293600Y-104768400D03*
X99893600Y-104768400D03*
X160440000Y-85719600D03*
X157040000Y-85719600D03*
X141391200Y-85719600D03*
X137991200Y-85719600D03*
X122342400Y-85719600D03*
X118942400Y-85719600D03*
X103293600Y-85719600D03*
X99893600Y-85719600D03*
X141391200Y-66670800D03*
X137991200Y-66670800D03*
X122342400Y-66670800D03*
X118942400Y-66670800D03*
D10*
X113568000Y-69039300D03*
X113568000Y-72239300D03*
X108668000Y-69039300D03*
X108668000Y-72239300D03*
X151665600Y-69039300D03*
X151665600Y-72239300D03*
X146765600Y-69039300D03*
X146765600Y-72239300D03*
X132616800Y-88088100D03*
X132616800Y-91288100D03*
X127716800Y-88088100D03*
X127716800Y-91288100D03*
X132616800Y-107136900D03*
X132616800Y-110336900D03*
X127716800Y-107136900D03*
X127716800Y-110336900D03*
X145178200Y-128592000D03*
X145178200Y-125392000D03*
X150078200Y-128592000D03*
X150078200Y-125392000D03*
G36*
G01*
X64277100Y-88153851D02*
X64277100Y-87253849D01*
G75*
G02*
X64527099Y-87003850I249999J0D01*
G01*
X65177101Y-87003850D01*
G75*
G02*
X65427100Y-87253849I0J-249999D01*
G01*
X65427100Y-88153851D01*
G75*
G02*
X65177101Y-88403850I-249999J0D01*
G01*
X64527099Y-88403850D01*
G75*
G02*
X64277100Y-88153851I0J249999D01*
G01*
G37*
G36*
G01*
X66327100Y-88153851D02*
X66327100Y-87253849D01*
G75*
G02*
X66577099Y-87003850I249999J0D01*
G01*
X67227101Y-87003850D01*
G75*
G02*
X67477100Y-87253849I0J-249999D01*
G01*
X67477100Y-88153851D01*
G75*
G02*
X67227101Y-88403850I-249999J0D01*
G01*
X66577099Y-88403850D01*
G75*
G02*
X66327100Y-88153851I0J249999D01*
G01*
G37*
D12*
X67777100Y-97997150D03*
X67777100Y-91697150D03*
X63977100Y-97997150D03*
X63977100Y-91697150D03*
M02*
