M48
; DRILL file {KiCad (5.1.9)-1} date 05/12/21 14:45:49
; FORMAT={-:-/ absolute / inch / decimal}
; #@! TF.CreationDate,2021-05-12T14:45:49+02:00
; #@! TF.GenerationSoftware,Kicad,Pcbnew,(5.1.9)-1
FMAT,2
INCH
T1C0.0157
T2C0.0236
T3C0.0394
T4C0.0579
T5C0.0591
T6C0.0256
T7C0.0689
T8C0.1200
T9C0.1570
%
G90
G05
T1
X2.4373Y-3.1248
X2.4373Y-3.1873
X2.4373Y-4.0935
X2.453Y-3.4529
X2.4998Y-4.4372
X2.4998Y-5.2184
X2.4998Y-5.8121
X2.5311Y-4.8434
X2.5467Y-2.5155
X2.6684Y-3.7062
X2.7342Y-2.8436
X2.7811Y-2.4998
X2.7811Y-2.7655
X2.7811Y-3.1873
X2.7811Y-3.406
X2.8537Y-3.406
X2.9061Y-3.656
X2.9529Y-2.8123
X2.9686Y-3.6248
X2.992Y-3.1326
X2.9998Y-2.8123
X2.9998Y-3.281
X3.0154Y-2.2186
X3.0154Y-2.7655
X3.0311Y-2.6405
X3.0623Y-3.0623
X3.0936Y-2.8904
X3.0936Y-3.1561
X3.1162Y-1.9147
X3.1248Y-3.281
X3.1561Y-3.8123
X3.1561Y-5.8746
X3.1873Y-3.0623
X3.1873Y-4.4685
X3.2342Y-2.2186
X3.2342Y-3.2967
X3.2498Y-3.1873
X3.2498Y-4.9997
X3.2508Y-2.8895
X3.3279Y-2.6717
X3.4373Y-4.2654
X3.4712Y-4.9684
X3.4998Y-2.2655
X3.4998Y-5.0934
X3.4998Y-5.359
X3.5154Y-2.8592
X3.531Y-5.2653
X3.5623Y-4.8591
X3.5623Y-5.7184
X3.5935Y-3.406
X3.5935Y-3.781
X3.5935Y-4.0622
X3.6248Y-2.9373
X3.6248Y-3.3435
X3.6248Y-3.4998
X3.656Y-3.1092
X3.6873Y-3.4685
X3.7498Y-3.281
X3.7966Y-3.531
X3.8748Y-5.3747
X3.906Y-4.3435
X4.031Y-5.3747
X4.0622Y-3.281
X4.1247Y-2.2499
X4.1247Y-5.0309
X4.1872Y-3.281
X4.2029Y-4.3903
X4.2185Y-4.1872
X4.2654Y-4.0622
X4.3747Y-2.8748
X4.3747Y-3.4685
X4.3747Y-4.9059
X4.406Y-4.5935
X4.8434Y-5.3747
X4.8747Y-3.6091
X4.9372Y-4.0466
X4.9372Y-4.2185
X4.9372Y-4.3435
X5.0309Y-3.6873
X5.0622Y-5.0622
X5.1247Y-2.4061
X5.1247Y-3.0936
X5.1247Y-3.531
X5.1247Y-4.281
X5.1247Y-4.7497
X5.1559Y-2.1874
X5.6246Y-4.3435
X5.7496Y-4.8747
X5.7809Y-3.3904
X5.7809Y-3.531
X5.8121Y-4.1404
X5.8121Y-4.2654
X5.8278Y-2.1874
X5.8746Y-3.4217
X5.8746Y-3.5935
X5.9059Y-4.8434
X5.9371Y-2.1874
X5.9684Y-3.6248
X6.0621Y-2.5936
X6.0621Y-2.8436
X6.2809Y-4.406
X6.2809Y-5.4059
X6.3434Y-5.6871
X6.4058Y-2.4998
X6.5308Y-3.531
X6.5621Y-2.8123
T3
X2.5436Y-2.1811
X2.5436Y-2.2811
X2.5436Y-2.3811
X2.6436Y-2.1811
X2.6436Y-2.2811
X2.6436Y-2.3811
X2.8169Y-4.0466
X2.9169Y-4.0466
X3.0169Y-4.0466
X3.1169Y-4.0466
X3.7047Y-2.3124
X3.7047Y-2.4108
X3.7047Y-2.5092
X4.2756Y-2.3124
X4.2756Y-2.5092
X5.9738Y-2.3109
X5.9738Y-2.5077
X6.5446Y-2.3109
X6.5446Y-2.4093
X6.5446Y-2.5077
T4
X3.8497Y-3.0561
X3.8497Y-3.806
X3.8497Y-4.556
X3.9013Y-2.9986
X3.9013Y-3.7485
X3.9013Y-4.4985
X4.0982Y-2.9789
X4.0982Y-3.7288
X4.0982Y-4.4788
X4.0997Y-2.9561
X4.0997Y-3.706
X4.0997Y-4.456
X4.2247Y-5.3059
X4.2763Y-5.2484
X4.4731Y-5.2287
X4.4747Y-5.2059
X4.5997Y-2.3061
X4.5997Y-3.0561
X4.5997Y-3.806
X4.5997Y-4.556
X4.6513Y-2.2486
X4.6513Y-2.9986
X4.6513Y-3.7485
X4.6513Y-4.4985
X4.8481Y-2.2289
X4.8481Y-2.9789
X4.8481Y-3.7288
X4.8481Y-4.4788
X4.8497Y-2.2061
X4.8497Y-2.9561
X4.8497Y-3.706
X4.8497Y-4.456
X5.3497Y-2.3061
X5.3497Y-3.0561
X5.3497Y-3.806
X5.3497Y-4.556
X5.3497Y-5.3059
X5.4012Y-2.2486
X5.4012Y-2.9986
X5.4012Y-3.7485
X5.4012Y-4.4985
X5.4012Y-5.2484
X5.5981Y-2.2289
X5.5981Y-2.9789
X5.5981Y-3.7288
X5.5981Y-4.4788
X5.5981Y-5.2287
X5.5997Y-2.2061
X5.5997Y-2.9561
X5.5997Y-3.706
X5.5997Y-4.456
X5.5997Y-5.2059
X6.0496Y-4.9309
X6.0724Y-4.9325
X6.0921Y-5.1294
X6.0996Y-3.0561
X6.0996Y-3.806
X6.1496Y-5.1809
X6.1512Y-2.9986
X6.1512Y-3.7485
X6.348Y-2.9789
X6.348Y-3.7288
X6.3496Y-2.9561
X6.3496Y-3.706
T6
X3.011Y-2.0584
X3.2386Y-2.0584
T7
X3.7997Y-3.1561
X3.7997Y-3.906
X3.7997Y-4.656
X4.1747Y-5.4059
X4.1997Y-3.1561
X4.1997Y-3.906
X4.1997Y-4.656
X4.5497Y-2.4061
X4.5497Y-3.1561
X4.5497Y-3.906
X4.5497Y-4.656
X4.5747Y-5.4059
X4.9497Y-2.4061
X4.9497Y-3.1561
X4.9497Y-3.906
X4.9497Y-4.656
X5.2997Y-2.4061
X5.2997Y-3.1561
X5.2997Y-3.906
X5.2997Y-4.656
X5.2997Y-5.4059
X5.6997Y-2.4061
X5.6997Y-3.1561
X5.6997Y-3.906
X5.6997Y-4.656
X5.6997Y-5.4059
X6.0496Y-3.1561
X6.0496Y-3.906
X6.2496Y-4.8309
X6.2496Y-5.2309
X6.4496Y-3.1561
X6.4496Y-3.906
T8
X3.9047Y-5.1309
X4.8447Y-5.1309
X5.9746Y-4.5609
X5.9746Y-5.5009
T9
X3.9047Y-5.7309
X3.9997Y-3.1561
X3.9997Y-3.906
X3.9997Y-4.656
X4.3747Y-5.4059
X4.7497Y-2.4061
X4.7497Y-3.1561
X4.7497Y-3.906
X4.7497Y-4.656
X4.8447Y-5.7309
X5.4997Y-2.4061
X5.4997Y-3.1561
X5.4997Y-3.906
X5.4997Y-4.656
X5.4997Y-5.4059
X6.2496Y-3.1561
X6.2496Y-3.906
X6.2496Y-5.0309
X6.5746Y-4.5609
X6.5746Y-5.5009
T2
G00X2.9547Y-1.9266
M15
G01X2.9547Y-1.9029
M16
G05
G00X2.9547Y-2.101
M15
G01X2.9547Y-2.0577
M16
G05
G00X3.2949Y-1.9266
M15
G01X3.2949Y-1.9029
M16
G05
G00X3.2949Y-2.101
M15
G01X3.2949Y-2.0577
M16
G05
T5
G00X3.9744Y-2.1903
M15
G01X4.0256Y-2.1903
M16
G05
G00X3.9744Y-2.6313
M15
G01X4.0256Y-2.6313
M16
G05
G00X6.2749Y-2.1888
M15
G01X6.2238Y-2.1888
M16
G05
G00X6.2749Y-2.6298
M15
G01X6.2238Y-2.6298
M16
G05
T0
M30
