G04 #@! TF.GenerationSoftware,KiCad,Pcbnew,(5.1.9)-1*
G04 #@! TF.CreationDate,2021-05-12T14:45:45+02:00*
G04 #@! TF.ProjectId,RotPad,526f7450-6164-42e6-9b69-6361645f7063,rev?*
G04 #@! TF.SameCoordinates,Original*
G04 #@! TF.FileFunction,Legend,Bot*
G04 #@! TF.FilePolarity,Positive*
%FSLAX46Y46*%
G04 Gerber Fmt 4.6, Leading zero omitted, Abs format (unit mm)*
G04 Created by KiCad (PCBNEW (5.1.9)-1) date 2021-05-12 14:45:45*
%MOMM*%
%LPD*%
G01*
G04 APERTURE LIST*
%ADD10C,0.010000*%
%ADD11C,0.120000*%
%ADD12C,0.200000*%
%ADD13C,0.250000*%
%ADD14C,0.150000*%
G04 APERTURE END LIST*
D10*
G36*
X75338901Y-129847468D02*
G01*
X75334968Y-129791873D01*
X75305540Y-129481511D01*
X75264552Y-129166255D01*
X75213741Y-128855209D01*
X75154844Y-128557480D01*
X75089598Y-128282173D01*
X75019739Y-128038393D01*
X74975936Y-127909964D01*
X74916551Y-127748328D01*
X74929933Y-127875328D01*
X74981244Y-128432023D01*
X75013621Y-128951800D01*
X75027101Y-129439845D01*
X75021718Y-129901345D01*
X74997509Y-130341488D01*
X74954507Y-130765461D01*
X74949895Y-130801630D01*
X74887454Y-131202375D01*
X74809075Y-131565680D01*
X74715187Y-131890511D01*
X74606220Y-132175834D01*
X74482606Y-132420617D01*
X74344774Y-132623826D01*
X74193156Y-132784427D01*
X74091200Y-132862964D01*
X74039370Y-132897600D01*
X74106520Y-133014148D01*
X74164119Y-133099004D01*
X74234392Y-133182589D01*
X74268307Y-133216194D01*
X74333233Y-133268688D01*
X74389056Y-133294254D01*
X74456024Y-133301616D01*
X74466718Y-133301691D01*
X74554452Y-133288002D01*
X74635085Y-133244344D01*
X74712520Y-133166834D01*
X74790664Y-133051586D01*
X74871238Y-132899227D01*
X74978547Y-132645403D01*
X75074496Y-132353671D01*
X75158023Y-132031142D01*
X75228067Y-131684928D01*
X75283567Y-131322140D01*
X75323462Y-130949889D01*
X75346690Y-130575286D01*
X75352190Y-130205442D01*
X75338901Y-129847468D01*
G37*
X75338901Y-129847468D02*
X75334968Y-129791873D01*
X75305540Y-129481511D01*
X75264552Y-129166255D01*
X75213741Y-128855209D01*
X75154844Y-128557480D01*
X75089598Y-128282173D01*
X75019739Y-128038393D01*
X74975936Y-127909964D01*
X74916551Y-127748328D01*
X74929933Y-127875328D01*
X74981244Y-128432023D01*
X75013621Y-128951800D01*
X75027101Y-129439845D01*
X75021718Y-129901345D01*
X74997509Y-130341488D01*
X74954507Y-130765461D01*
X74949895Y-130801630D01*
X74887454Y-131202375D01*
X74809075Y-131565680D01*
X74715187Y-131890511D01*
X74606220Y-132175834D01*
X74482606Y-132420617D01*
X74344774Y-132623826D01*
X74193156Y-132784427D01*
X74091200Y-132862964D01*
X74039370Y-132897600D01*
X74106520Y-133014148D01*
X74164119Y-133099004D01*
X74234392Y-133182589D01*
X74268307Y-133216194D01*
X74333233Y-133268688D01*
X74389056Y-133294254D01*
X74456024Y-133301616D01*
X74466718Y-133301691D01*
X74554452Y-133288002D01*
X74635085Y-133244344D01*
X74712520Y-133166834D01*
X74790664Y-133051586D01*
X74871238Y-132899227D01*
X74978547Y-132645403D01*
X75074496Y-132353671D01*
X75158023Y-132031142D01*
X75228067Y-131684928D01*
X75283567Y-131322140D01*
X75323462Y-130949889D01*
X75346690Y-130575286D01*
X75352190Y-130205442D01*
X75338901Y-129847468D01*
G36*
X76490877Y-130662744D02*
G01*
X76474720Y-130194915D01*
X76446275Y-129752533D01*
X76404640Y-129325833D01*
X76348914Y-128905051D01*
X76278197Y-128480421D01*
X76220380Y-128181006D01*
X76124687Y-127755347D01*
X76016492Y-127357189D01*
X75896834Y-126988611D01*
X75766755Y-126651690D01*
X75627294Y-126348502D01*
X75479491Y-126081125D01*
X75324387Y-125851636D01*
X75163020Y-125662112D01*
X74996431Y-125514631D01*
X74836173Y-125416271D01*
X74743465Y-125375561D01*
X74652677Y-125342574D01*
X74582720Y-125324141D01*
X74579966Y-125323702D01*
X74527314Y-125318996D01*
X74481583Y-125326502D01*
X74429127Y-125351104D01*
X74356303Y-125397684D01*
X74337512Y-125410464D01*
X74167111Y-125551246D01*
X74004548Y-125733637D01*
X73852451Y-125953358D01*
X73713451Y-126206132D01*
X73590175Y-126487680D01*
X73485255Y-126793724D01*
X73483301Y-126800271D01*
X73381506Y-127202599D01*
X73304421Y-127637816D01*
X73251701Y-128100016D01*
X73223004Y-128583290D01*
X73217984Y-129081732D01*
X73236298Y-129589435D01*
X73277603Y-130100494D01*
X73341554Y-130608999D01*
X73427807Y-131109046D01*
X73536020Y-131594727D01*
X73665847Y-132060135D01*
X73814718Y-132493510D01*
X73859656Y-132607830D01*
X73896775Y-132694571D01*
X73924275Y-132750341D01*
X73940353Y-132771751D01*
X73943208Y-132755412D01*
X73937452Y-132724419D01*
X73929714Y-132681337D01*
X73917333Y-132602443D01*
X73901807Y-132497693D01*
X73884637Y-132377048D01*
X73878373Y-132331873D01*
X73815784Y-131822101D01*
X73768949Y-131319596D01*
X73738064Y-130830391D01*
X73723327Y-130360519D01*
X73724935Y-129916013D01*
X73743086Y-129502907D01*
X73774474Y-129156545D01*
X73819516Y-128821327D01*
X73876094Y-128482126D01*
X73942648Y-128144730D01*
X74017618Y-127814928D01*
X74099445Y-127498507D01*
X74186567Y-127201258D01*
X74277426Y-126928969D01*
X74370461Y-126687428D01*
X74464111Y-126482425D01*
X74525391Y-126370133D01*
X74583616Y-126280684D01*
X74651016Y-126190320D01*
X74720453Y-126107170D01*
X74784789Y-126039363D01*
X74836887Y-125995029D01*
X74866274Y-125981873D01*
X74897950Y-126002586D01*
X74942095Y-126060603D01*
X74995626Y-126149747D01*
X75055462Y-126263838D01*
X75118518Y-126396696D01*
X75181713Y-126542142D01*
X75241963Y-126693998D01*
X75293695Y-126838653D01*
X75426174Y-127285823D01*
X75535885Y-127772100D01*
X75622608Y-128296291D01*
X75686124Y-128857199D01*
X75703431Y-129070128D01*
X75712353Y-129232614D01*
X75718336Y-129429287D01*
X75721514Y-129651752D01*
X75722018Y-129891619D01*
X75719980Y-130140493D01*
X75715533Y-130389982D01*
X75708809Y-130631694D01*
X75699941Y-130857236D01*
X75689061Y-131058214D01*
X75676301Y-131226236D01*
X75668204Y-131304328D01*
X75606596Y-131755585D01*
X75532268Y-132178018D01*
X75445914Y-132569881D01*
X75348224Y-132929432D01*
X75239892Y-133254927D01*
X75121611Y-133544623D01*
X74994071Y-133796775D01*
X74857966Y-134009641D01*
X74713989Y-134181477D01*
X74562831Y-134310538D01*
X74448120Y-134376848D01*
X74293518Y-134426406D01*
X74141113Y-134431426D01*
X73991713Y-134393528D01*
X73846122Y-134314337D01*
X73705148Y-134195472D01*
X73569596Y-134038558D01*
X73440272Y-133845215D01*
X73317983Y-133617066D01*
X73203534Y-133355733D01*
X73097732Y-133062838D01*
X73001383Y-132740004D01*
X72915292Y-132388851D01*
X72840266Y-132011003D01*
X72777111Y-131608082D01*
X72726633Y-131181709D01*
X72698162Y-130855366D01*
X72689764Y-130702855D01*
X72684142Y-130514727D01*
X72681167Y-130299441D01*
X72680707Y-130065460D01*
X72682631Y-129821243D01*
X72686809Y-129575250D01*
X72693110Y-129335943D01*
X72701402Y-129111781D01*
X72711555Y-128911225D01*
X72723438Y-128742737D01*
X72732239Y-128652554D01*
X72748888Y-128515562D01*
X72769235Y-128362672D01*
X72791784Y-128203781D01*
X72815040Y-128048790D01*
X72837508Y-127907595D01*
X72857694Y-127790097D01*
X72874101Y-127706193D01*
X72877271Y-127692321D01*
X72883155Y-127653387D01*
X72877351Y-127645686D01*
X72865113Y-127674685D01*
X72846042Y-127741806D01*
X72821744Y-127839764D01*
X72793820Y-127961277D01*
X72763877Y-128099060D01*
X72733517Y-128245830D01*
X72704345Y-128394304D01*
X72677965Y-128537198D01*
X72666591Y-128602691D01*
X72618234Y-128917145D01*
X72574073Y-129261082D01*
X72535965Y-129617864D01*
X72505767Y-129970852D01*
X72493364Y-130154663D01*
X72487790Y-130274298D01*
X72483080Y-130429194D01*
X72479275Y-130610940D01*
X72476415Y-130811124D01*
X72474541Y-131021334D01*
X72473692Y-131233160D01*
X72473909Y-131438188D01*
X72475232Y-131628009D01*
X72477701Y-131794211D01*
X72481357Y-131928381D01*
X72484543Y-131997055D01*
X72534593Y-132650220D01*
X72604866Y-133263736D01*
X72695705Y-133839639D01*
X72807455Y-134379965D01*
X72940459Y-134886751D01*
X73012223Y-135119531D01*
X73145186Y-135494351D01*
X73288042Y-135829499D01*
X73440151Y-136123996D01*
X73600872Y-136376862D01*
X73769564Y-136587120D01*
X73945588Y-136753790D01*
X74128301Y-136875894D01*
X74178082Y-136900807D01*
X74344402Y-136953433D01*
X74520120Y-136962884D01*
X74698641Y-136929309D01*
X74808743Y-136886527D01*
X74986363Y-136779191D01*
X75158372Y-136627747D01*
X75323935Y-136434017D01*
X75482217Y-136199829D01*
X75632381Y-135927005D01*
X75773592Y-135617373D01*
X75905015Y-135272755D01*
X76025814Y-134894979D01*
X76135154Y-134485867D01*
X76232198Y-134047246D01*
X76312764Y-133601665D01*
X76368468Y-133232686D01*
X76412929Y-132877333D01*
X76446959Y-132524783D01*
X76471371Y-132164212D01*
X76486977Y-131784798D01*
X76494590Y-131375719D01*
X76495644Y-131165782D01*
X76490877Y-130662744D01*
G37*
X76490877Y-130662744D02*
X76474720Y-130194915D01*
X76446275Y-129752533D01*
X76404640Y-129325833D01*
X76348914Y-128905051D01*
X76278197Y-128480421D01*
X76220380Y-128181006D01*
X76124687Y-127755347D01*
X76016492Y-127357189D01*
X75896834Y-126988611D01*
X75766755Y-126651690D01*
X75627294Y-126348502D01*
X75479491Y-126081125D01*
X75324387Y-125851636D01*
X75163020Y-125662112D01*
X74996431Y-125514631D01*
X74836173Y-125416271D01*
X74743465Y-125375561D01*
X74652677Y-125342574D01*
X74582720Y-125324141D01*
X74579966Y-125323702D01*
X74527314Y-125318996D01*
X74481583Y-125326502D01*
X74429127Y-125351104D01*
X74356303Y-125397684D01*
X74337512Y-125410464D01*
X74167111Y-125551246D01*
X74004548Y-125733637D01*
X73852451Y-125953358D01*
X73713451Y-126206132D01*
X73590175Y-126487680D01*
X73485255Y-126793724D01*
X73483301Y-126800271D01*
X73381506Y-127202599D01*
X73304421Y-127637816D01*
X73251701Y-128100016D01*
X73223004Y-128583290D01*
X73217984Y-129081732D01*
X73236298Y-129589435D01*
X73277603Y-130100494D01*
X73341554Y-130608999D01*
X73427807Y-131109046D01*
X73536020Y-131594727D01*
X73665847Y-132060135D01*
X73814718Y-132493510D01*
X73859656Y-132607830D01*
X73896775Y-132694571D01*
X73924275Y-132750341D01*
X73940353Y-132771751D01*
X73943208Y-132755412D01*
X73937452Y-132724419D01*
X73929714Y-132681337D01*
X73917333Y-132602443D01*
X73901807Y-132497693D01*
X73884637Y-132377048D01*
X73878373Y-132331873D01*
X73815784Y-131822101D01*
X73768949Y-131319596D01*
X73738064Y-130830391D01*
X73723327Y-130360519D01*
X73724935Y-129916013D01*
X73743086Y-129502907D01*
X73774474Y-129156545D01*
X73819516Y-128821327D01*
X73876094Y-128482126D01*
X73942648Y-128144730D01*
X74017618Y-127814928D01*
X74099445Y-127498507D01*
X74186567Y-127201258D01*
X74277426Y-126928969D01*
X74370461Y-126687428D01*
X74464111Y-126482425D01*
X74525391Y-126370133D01*
X74583616Y-126280684D01*
X74651016Y-126190320D01*
X74720453Y-126107170D01*
X74784789Y-126039363D01*
X74836887Y-125995029D01*
X74866274Y-125981873D01*
X74897950Y-126002586D01*
X74942095Y-126060603D01*
X74995626Y-126149747D01*
X75055462Y-126263838D01*
X75118518Y-126396696D01*
X75181713Y-126542142D01*
X75241963Y-126693998D01*
X75293695Y-126838653D01*
X75426174Y-127285823D01*
X75535885Y-127772100D01*
X75622608Y-128296291D01*
X75686124Y-128857199D01*
X75703431Y-129070128D01*
X75712353Y-129232614D01*
X75718336Y-129429287D01*
X75721514Y-129651752D01*
X75722018Y-129891619D01*
X75719980Y-130140493D01*
X75715533Y-130389982D01*
X75708809Y-130631694D01*
X75699941Y-130857236D01*
X75689061Y-131058214D01*
X75676301Y-131226236D01*
X75668204Y-131304328D01*
X75606596Y-131755585D01*
X75532268Y-132178018D01*
X75445914Y-132569881D01*
X75348224Y-132929432D01*
X75239892Y-133254927D01*
X75121611Y-133544623D01*
X74994071Y-133796775D01*
X74857966Y-134009641D01*
X74713989Y-134181477D01*
X74562831Y-134310538D01*
X74448120Y-134376848D01*
X74293518Y-134426406D01*
X74141113Y-134431426D01*
X73991713Y-134393528D01*
X73846122Y-134314337D01*
X73705148Y-134195472D01*
X73569596Y-134038558D01*
X73440272Y-133845215D01*
X73317983Y-133617066D01*
X73203534Y-133355733D01*
X73097732Y-133062838D01*
X73001383Y-132740004D01*
X72915292Y-132388851D01*
X72840266Y-132011003D01*
X72777111Y-131608082D01*
X72726633Y-131181709D01*
X72698162Y-130855366D01*
X72689764Y-130702855D01*
X72684142Y-130514727D01*
X72681167Y-130299441D01*
X72680707Y-130065460D01*
X72682631Y-129821243D01*
X72686809Y-129575250D01*
X72693110Y-129335943D01*
X72701402Y-129111781D01*
X72711555Y-128911225D01*
X72723438Y-128742737D01*
X72732239Y-128652554D01*
X72748888Y-128515562D01*
X72769235Y-128362672D01*
X72791784Y-128203781D01*
X72815040Y-128048790D01*
X72837508Y-127907595D01*
X72857694Y-127790097D01*
X72874101Y-127706193D01*
X72877271Y-127692321D01*
X72883155Y-127653387D01*
X72877351Y-127645686D01*
X72865113Y-127674685D01*
X72846042Y-127741806D01*
X72821744Y-127839764D01*
X72793820Y-127961277D01*
X72763877Y-128099060D01*
X72733517Y-128245830D01*
X72704345Y-128394304D01*
X72677965Y-128537198D01*
X72666591Y-128602691D01*
X72618234Y-128917145D01*
X72574073Y-129261082D01*
X72535965Y-129617864D01*
X72505767Y-129970852D01*
X72493364Y-130154663D01*
X72487790Y-130274298D01*
X72483080Y-130429194D01*
X72479275Y-130610940D01*
X72476415Y-130811124D01*
X72474541Y-131021334D01*
X72473692Y-131233160D01*
X72473909Y-131438188D01*
X72475232Y-131628009D01*
X72477701Y-131794211D01*
X72481357Y-131928381D01*
X72484543Y-131997055D01*
X72534593Y-132650220D01*
X72604866Y-133263736D01*
X72695705Y-133839639D01*
X72807455Y-134379965D01*
X72940459Y-134886751D01*
X73012223Y-135119531D01*
X73145186Y-135494351D01*
X73288042Y-135829499D01*
X73440151Y-136123996D01*
X73600872Y-136376862D01*
X73769564Y-136587120D01*
X73945588Y-136753790D01*
X74128301Y-136875894D01*
X74178082Y-136900807D01*
X74344402Y-136953433D01*
X74520120Y-136962884D01*
X74698641Y-136929309D01*
X74808743Y-136886527D01*
X74986363Y-136779191D01*
X75158372Y-136627747D01*
X75323935Y-136434017D01*
X75482217Y-136199829D01*
X75632381Y-135927005D01*
X75773592Y-135617373D01*
X75905015Y-135272755D01*
X76025814Y-134894979D01*
X76135154Y-134485867D01*
X76232198Y-134047246D01*
X76312764Y-133601665D01*
X76368468Y-133232686D01*
X76412929Y-132877333D01*
X76446959Y-132524783D01*
X76471371Y-132164212D01*
X76486977Y-131784798D01*
X76494590Y-131375719D01*
X76495644Y-131165782D01*
X76490877Y-130662744D01*
G36*
X73351411Y-126705511D02*
G01*
X73302186Y-126651702D01*
X73231585Y-126590569D01*
X73148969Y-126529905D01*
X73063699Y-126477503D01*
X73027029Y-126458729D01*
X72953363Y-126425543D01*
X72891799Y-126404313D01*
X72827929Y-126392400D01*
X72747344Y-126387164D01*
X72635636Y-126385965D01*
X72629793Y-126385964D01*
X72518803Y-126386769D01*
X72439227Y-126391245D01*
X72376303Y-126402483D01*
X72315267Y-126423576D01*
X72241356Y-126457615D01*
X72206968Y-126474516D01*
X72011766Y-126595926D01*
X71832929Y-126759236D01*
X71670334Y-126964677D01*
X71523858Y-127212484D01*
X71393379Y-127502890D01*
X71278775Y-127836127D01*
X71179921Y-128212430D01*
X71109182Y-128560777D01*
X71062549Y-128861222D01*
X71023260Y-129197378D01*
X70991790Y-129559288D01*
X70968614Y-129936997D01*
X70954205Y-130320547D01*
X70949038Y-130699982D01*
X70953586Y-131065346D01*
X70968324Y-131406681D01*
X70971391Y-131454419D01*
X71013720Y-131915929D01*
X71075918Y-132337371D01*
X71157891Y-132718442D01*
X71259546Y-133058838D01*
X71380787Y-133358254D01*
X71521520Y-133616386D01*
X71681651Y-133832932D01*
X71723044Y-133878772D01*
X71882842Y-134026466D01*
X72046081Y-134134471D01*
X72208712Y-134200356D01*
X72284627Y-134216200D01*
X72388536Y-134231009D01*
X72269596Y-134106941D01*
X72116033Y-133920100D01*
X71981910Y-133699335D01*
X71866050Y-133442099D01*
X71767277Y-133145844D01*
X71696754Y-132865429D01*
X71636983Y-132533642D01*
X71594871Y-132165708D01*
X71570137Y-131768034D01*
X71562503Y-131347028D01*
X71571688Y-130909098D01*
X71597412Y-130460652D01*
X71639395Y-130008096D01*
X71697357Y-129557840D01*
X71771017Y-129116291D01*
X71860096Y-128689856D01*
X71883573Y-128591146D01*
X71967077Y-128284838D01*
X72064529Y-127990373D01*
X72173519Y-127712503D01*
X72291637Y-127455979D01*
X72416473Y-127225554D01*
X72545617Y-127025980D01*
X72676660Y-126862010D01*
X72807192Y-126738394D01*
X72832982Y-126718963D01*
X72954989Y-126654734D01*
X73077777Y-126636415D01*
X73199737Y-126664060D01*
X73273450Y-126703792D01*
X73327863Y-126735690D01*
X73362838Y-126748300D01*
X73369900Y-126744201D01*
X73351411Y-126705511D01*
G37*
X73351411Y-126705511D02*
X73302186Y-126651702D01*
X73231585Y-126590569D01*
X73148969Y-126529905D01*
X73063699Y-126477503D01*
X73027029Y-126458729D01*
X72953363Y-126425543D01*
X72891799Y-126404313D01*
X72827929Y-126392400D01*
X72747344Y-126387164D01*
X72635636Y-126385965D01*
X72629793Y-126385964D01*
X72518803Y-126386769D01*
X72439227Y-126391245D01*
X72376303Y-126402483D01*
X72315267Y-126423576D01*
X72241356Y-126457615D01*
X72206968Y-126474516D01*
X72011766Y-126595926D01*
X71832929Y-126759236D01*
X71670334Y-126964677D01*
X71523858Y-127212484D01*
X71393379Y-127502890D01*
X71278775Y-127836127D01*
X71179921Y-128212430D01*
X71109182Y-128560777D01*
X71062549Y-128861222D01*
X71023260Y-129197378D01*
X70991790Y-129559288D01*
X70968614Y-129936997D01*
X70954205Y-130320547D01*
X70949038Y-130699982D01*
X70953586Y-131065346D01*
X70968324Y-131406681D01*
X70971391Y-131454419D01*
X71013720Y-131915929D01*
X71075918Y-132337371D01*
X71157891Y-132718442D01*
X71259546Y-133058838D01*
X71380787Y-133358254D01*
X71521520Y-133616386D01*
X71681651Y-133832932D01*
X71723044Y-133878772D01*
X71882842Y-134026466D01*
X72046081Y-134134471D01*
X72208712Y-134200356D01*
X72284627Y-134216200D01*
X72388536Y-134231009D01*
X72269596Y-134106941D01*
X72116033Y-133920100D01*
X71981910Y-133699335D01*
X71866050Y-133442099D01*
X71767277Y-133145844D01*
X71696754Y-132865429D01*
X71636983Y-132533642D01*
X71594871Y-132165708D01*
X71570137Y-131768034D01*
X71562503Y-131347028D01*
X71571688Y-130909098D01*
X71597412Y-130460652D01*
X71639395Y-130008096D01*
X71697357Y-129557840D01*
X71771017Y-129116291D01*
X71860096Y-128689856D01*
X71883573Y-128591146D01*
X71967077Y-128284838D01*
X72064529Y-127990373D01*
X72173519Y-127712503D01*
X72291637Y-127455979D01*
X72416473Y-127225554D01*
X72545617Y-127025980D01*
X72676660Y-126862010D01*
X72807192Y-126738394D01*
X72832982Y-126718963D01*
X72954989Y-126654734D01*
X73077777Y-126636415D01*
X73199737Y-126664060D01*
X73273450Y-126703792D01*
X73327863Y-126735690D01*
X73362838Y-126748300D01*
X73369900Y-126744201D01*
X73351411Y-126705511D01*
G36*
X72671629Y-135127626D02*
G01*
X72604046Y-135135550D01*
X72544639Y-135146468D01*
X72321500Y-135166807D01*
X72100820Y-135141770D01*
X71884873Y-135072164D01*
X71675936Y-134958797D01*
X71476283Y-134802473D01*
X71418631Y-134747413D01*
X71296509Y-134618293D01*
X71191641Y-134489260D01*
X71096287Y-134349009D01*
X71002707Y-134186232D01*
X70911090Y-134005964D01*
X70767115Y-133673946D01*
X70639782Y-133306613D01*
X70531206Y-132912487D01*
X70443499Y-132500090D01*
X70378775Y-132077943D01*
X70343298Y-131716294D01*
X70329105Y-131378821D01*
X70331679Y-131004448D01*
X70350391Y-130599053D01*
X70384609Y-130168516D01*
X70433706Y-129718716D01*
X70497050Y-129255532D01*
X70574011Y-128784843D01*
X70663960Y-128312529D01*
X70751122Y-127909964D01*
X70779587Y-127786242D01*
X70805226Y-127675756D01*
X70825909Y-127587617D01*
X70839504Y-127530936D01*
X70842930Y-127517419D01*
X70850315Y-127485493D01*
X70840807Y-127490119D01*
X70819128Y-127516637D01*
X70768264Y-127592456D01*
X70705134Y-127706074D01*
X70632307Y-127851555D01*
X70552353Y-128022962D01*
X70467841Y-128214360D01*
X70381340Y-128419814D01*
X70295420Y-128633387D01*
X70212651Y-128849144D01*
X70135601Y-129061149D01*
X70079116Y-129226146D01*
X69894990Y-129839477D01*
X69754061Y-130439260D01*
X69656007Y-131027403D01*
X69600506Y-131605814D01*
X69586873Y-132145082D01*
X69588579Y-132284715D01*
X69590853Y-132414822D01*
X69593472Y-132525622D01*
X69596212Y-132607339D01*
X69598210Y-132643600D01*
X69640774Y-133081286D01*
X69694830Y-133477721D01*
X69761217Y-133836589D01*
X69840770Y-134161576D01*
X69934327Y-134456365D01*
X70042724Y-134724643D01*
X70096335Y-134837237D01*
X70243240Y-135091971D01*
X70409470Y-135308444D01*
X70593452Y-135485288D01*
X70793609Y-135621136D01*
X71008367Y-135714619D01*
X71148992Y-135750866D01*
X71355313Y-135769882D01*
X71578169Y-135753603D01*
X71808281Y-135705028D01*
X72036370Y-135627155D01*
X72253158Y-135522982D01*
X72449367Y-135395509D01*
X72573072Y-135290615D01*
X72651600Y-135213345D01*
X72694684Y-135162863D01*
X72701601Y-135135510D01*
X72671629Y-135127626D01*
G37*
X72671629Y-135127626D02*
X72604046Y-135135550D01*
X72544639Y-135146468D01*
X72321500Y-135166807D01*
X72100820Y-135141770D01*
X71884873Y-135072164D01*
X71675936Y-134958797D01*
X71476283Y-134802473D01*
X71418631Y-134747413D01*
X71296509Y-134618293D01*
X71191641Y-134489260D01*
X71096287Y-134349009D01*
X71002707Y-134186232D01*
X70911090Y-134005964D01*
X70767115Y-133673946D01*
X70639782Y-133306613D01*
X70531206Y-132912487D01*
X70443499Y-132500090D01*
X70378775Y-132077943D01*
X70343298Y-131716294D01*
X70329105Y-131378821D01*
X70331679Y-131004448D01*
X70350391Y-130599053D01*
X70384609Y-130168516D01*
X70433706Y-129718716D01*
X70497050Y-129255532D01*
X70574011Y-128784843D01*
X70663960Y-128312529D01*
X70751122Y-127909964D01*
X70779587Y-127786242D01*
X70805226Y-127675756D01*
X70825909Y-127587617D01*
X70839504Y-127530936D01*
X70842930Y-127517419D01*
X70850315Y-127485493D01*
X70840807Y-127490119D01*
X70819128Y-127516637D01*
X70768264Y-127592456D01*
X70705134Y-127706074D01*
X70632307Y-127851555D01*
X70552353Y-128022962D01*
X70467841Y-128214360D01*
X70381340Y-128419814D01*
X70295420Y-128633387D01*
X70212651Y-128849144D01*
X70135601Y-129061149D01*
X70079116Y-129226146D01*
X69894990Y-129839477D01*
X69754061Y-130439260D01*
X69656007Y-131027403D01*
X69600506Y-131605814D01*
X69586873Y-132145082D01*
X69588579Y-132284715D01*
X69590853Y-132414822D01*
X69593472Y-132525622D01*
X69596212Y-132607339D01*
X69598210Y-132643600D01*
X69640774Y-133081286D01*
X69694830Y-133477721D01*
X69761217Y-133836589D01*
X69840770Y-134161576D01*
X69934327Y-134456365D01*
X70042724Y-134724643D01*
X70096335Y-134837237D01*
X70243240Y-135091971D01*
X70409470Y-135308444D01*
X70593452Y-135485288D01*
X70793609Y-135621136D01*
X71008367Y-135714619D01*
X71148992Y-135750866D01*
X71355313Y-135769882D01*
X71578169Y-135753603D01*
X71808281Y-135705028D01*
X72036370Y-135627155D01*
X72253158Y-135522982D01*
X72449367Y-135395509D01*
X72573072Y-135290615D01*
X72651600Y-135213345D01*
X72694684Y-135162863D01*
X72701601Y-135135510D01*
X72671629Y-135127626D01*
G36*
X70187144Y-128294487D02*
G01*
X70139704Y-128251136D01*
X70071262Y-128194173D01*
X69990073Y-128130261D01*
X69904394Y-128066059D01*
X69822482Y-128008229D01*
X69818716Y-128005680D01*
X69695840Y-127930279D01*
X69555406Y-127856153D01*
X69411948Y-127790097D01*
X69279996Y-127738906D01*
X69193806Y-127713525D01*
X69060111Y-127695000D01*
X68915558Y-127695431D01*
X68777048Y-127713461D01*
X68661480Y-127747733D01*
X68639423Y-127758025D01*
X68509685Y-127847026D01*
X68387648Y-127974325D01*
X68280570Y-128132040D01*
X68259416Y-128170655D01*
X68201911Y-128298571D01*
X68142175Y-128465102D01*
X68082043Y-128662857D01*
X68023350Y-128884447D01*
X67967929Y-129122485D01*
X67917617Y-129369581D01*
X67874247Y-129618345D01*
X67839685Y-129861146D01*
X67827021Y-129985235D01*
X67815647Y-130138707D01*
X67805933Y-130310998D01*
X67798253Y-130491544D01*
X67792978Y-130669780D01*
X67790480Y-130835141D01*
X67791132Y-130977063D01*
X67795306Y-131084981D01*
X67796171Y-131096510D01*
X67854561Y-131570743D01*
X67950519Y-132018313D01*
X68084010Y-132439137D01*
X68254998Y-132833133D01*
X68463445Y-133200220D01*
X68709317Y-133540316D01*
X68992576Y-133853339D01*
X69031675Y-133891587D01*
X69123148Y-133976360D01*
X69221212Y-134061420D01*
X69318543Y-134141055D01*
X69407817Y-134209552D01*
X69481712Y-134261200D01*
X69532902Y-134290286D01*
X69548396Y-134294601D01*
X69545695Y-134277124D01*
X69523372Y-134232395D01*
X69502316Y-134196464D01*
X69468476Y-134137649D01*
X69420370Y-134049283D01*
X69364313Y-133943158D01*
X69306616Y-133831069D01*
X69304523Y-133826942D01*
X69084996Y-133343600D01*
X68906840Y-132842996D01*
X68770647Y-132329054D01*
X68677012Y-131805698D01*
X68626526Y-131276852D01*
X68619783Y-130746439D01*
X68657377Y-130218384D01*
X68706828Y-129872691D01*
X68778002Y-129525346D01*
X68864395Y-129221198D01*
X68966285Y-128959751D01*
X69083951Y-128740504D01*
X69217668Y-128562959D01*
X69367715Y-128426616D01*
X69534368Y-128330977D01*
X69572264Y-128315732D01*
X69724176Y-128278348D01*
X69891837Y-128269066D01*
X70053872Y-128288515D01*
X70098867Y-128300250D01*
X70160482Y-128316102D01*
X70198859Y-128320781D01*
X70205324Y-128317568D01*
X70187144Y-128294487D01*
G37*
X70187144Y-128294487D02*
X70139704Y-128251136D01*
X70071262Y-128194173D01*
X69990073Y-128130261D01*
X69904394Y-128066059D01*
X69822482Y-128008229D01*
X69818716Y-128005680D01*
X69695840Y-127930279D01*
X69555406Y-127856153D01*
X69411948Y-127790097D01*
X69279996Y-127738906D01*
X69193806Y-127713525D01*
X69060111Y-127695000D01*
X68915558Y-127695431D01*
X68777048Y-127713461D01*
X68661480Y-127747733D01*
X68639423Y-127758025D01*
X68509685Y-127847026D01*
X68387648Y-127974325D01*
X68280570Y-128132040D01*
X68259416Y-128170655D01*
X68201911Y-128298571D01*
X68142175Y-128465102D01*
X68082043Y-128662857D01*
X68023350Y-128884447D01*
X67967929Y-129122485D01*
X67917617Y-129369581D01*
X67874247Y-129618345D01*
X67839685Y-129861146D01*
X67827021Y-129985235D01*
X67815647Y-130138707D01*
X67805933Y-130310998D01*
X67798253Y-130491544D01*
X67792978Y-130669780D01*
X67790480Y-130835141D01*
X67791132Y-130977063D01*
X67795306Y-131084981D01*
X67796171Y-131096510D01*
X67854561Y-131570743D01*
X67950519Y-132018313D01*
X68084010Y-132439137D01*
X68254998Y-132833133D01*
X68463445Y-133200220D01*
X68709317Y-133540316D01*
X68992576Y-133853339D01*
X69031675Y-133891587D01*
X69123148Y-133976360D01*
X69221212Y-134061420D01*
X69318543Y-134141055D01*
X69407817Y-134209552D01*
X69481712Y-134261200D01*
X69532902Y-134290286D01*
X69548396Y-134294601D01*
X69545695Y-134277124D01*
X69523372Y-134232395D01*
X69502316Y-134196464D01*
X69468476Y-134137649D01*
X69420370Y-134049283D01*
X69364313Y-133943158D01*
X69306616Y-133831069D01*
X69304523Y-133826942D01*
X69084996Y-133343600D01*
X68906840Y-132842996D01*
X68770647Y-132329054D01*
X68677012Y-131805698D01*
X68626526Y-131276852D01*
X68619783Y-130746439D01*
X68657377Y-130218384D01*
X68706828Y-129872691D01*
X68778002Y-129525346D01*
X68864395Y-129221198D01*
X68966285Y-128959751D01*
X69083951Y-128740504D01*
X69217668Y-128562959D01*
X69367715Y-128426616D01*
X69534368Y-128330977D01*
X69572264Y-128315732D01*
X69724176Y-128278348D01*
X69891837Y-128269066D01*
X70053872Y-128288515D01*
X70098867Y-128300250D01*
X70160482Y-128316102D01*
X70198859Y-128320781D01*
X70205324Y-128317568D01*
X70187144Y-128294487D01*
G36*
X69123946Y-134739602D02*
G01*
X69080189Y-134741048D01*
X69050463Y-134744945D01*
X68886638Y-134747360D01*
X68713313Y-134711359D01*
X68540291Y-134640482D01*
X68377377Y-134538268D01*
X68300100Y-134474081D01*
X68129770Y-134290422D01*
X67974258Y-134065489D01*
X67834812Y-133802148D01*
X67712676Y-133503266D01*
X67609097Y-133171710D01*
X67525322Y-132810348D01*
X67489574Y-132608964D01*
X67476998Y-132522429D01*
X67467099Y-132433580D01*
X67459596Y-132335655D01*
X67454210Y-132221895D01*
X67450661Y-132085538D01*
X67448669Y-131919824D01*
X67447954Y-131717991D01*
X67447984Y-131604510D01*
X67449865Y-131321896D01*
X67455392Y-131075079D01*
X67465454Y-130853756D01*
X67480939Y-130647624D01*
X67502734Y-130446380D01*
X67531727Y-130239723D01*
X67568805Y-130017349D01*
X67598907Y-129852873D01*
X67617010Y-129751129D01*
X67629984Y-129667298D01*
X67636469Y-129610993D01*
X67635868Y-129591962D01*
X67620679Y-129605780D01*
X67589415Y-129654699D01*
X67545634Y-129732020D01*
X67492895Y-129831042D01*
X67434754Y-129945066D01*
X67374770Y-130067393D01*
X67316499Y-130191322D01*
X67309653Y-130206286D01*
X67118288Y-130664728D01*
X66956567Y-131133425D01*
X66827843Y-131601482D01*
X66735465Y-132058004D01*
X66730419Y-132089419D01*
X66718622Y-132186515D01*
X66707801Y-132316746D01*
X66698329Y-132469767D01*
X66690577Y-132635235D01*
X66684919Y-132802803D01*
X66681727Y-132962127D01*
X66681374Y-133102863D01*
X66684232Y-133214666D01*
X66688002Y-133267055D01*
X66734374Y-133573300D01*
X66806823Y-133879009D01*
X66901236Y-134169305D01*
X67003999Y-134410055D01*
X67095346Y-134566526D01*
X67209883Y-134715095D01*
X67338071Y-134845596D01*
X67470373Y-134947866D01*
X67550991Y-134992969D01*
X67761422Y-135065891D01*
X67989451Y-135097341D01*
X68232788Y-135087526D01*
X68489143Y-135036654D01*
X68756227Y-134944933D01*
X68924900Y-134868289D01*
X69034091Y-134812687D01*
X69102557Y-134773791D01*
X69131955Y-134749973D01*
X69123946Y-134739602D01*
G37*
X69123946Y-134739602D02*
X69080189Y-134741048D01*
X69050463Y-134744945D01*
X68886638Y-134747360D01*
X68713313Y-134711359D01*
X68540291Y-134640482D01*
X68377377Y-134538268D01*
X68300100Y-134474081D01*
X68129770Y-134290422D01*
X67974258Y-134065489D01*
X67834812Y-133802148D01*
X67712676Y-133503266D01*
X67609097Y-133171710D01*
X67525322Y-132810348D01*
X67489574Y-132608964D01*
X67476998Y-132522429D01*
X67467099Y-132433580D01*
X67459596Y-132335655D01*
X67454210Y-132221895D01*
X67450661Y-132085538D01*
X67448669Y-131919824D01*
X67447954Y-131717991D01*
X67447984Y-131604510D01*
X67449865Y-131321896D01*
X67455392Y-131075079D01*
X67465454Y-130853756D01*
X67480939Y-130647624D01*
X67502734Y-130446380D01*
X67531727Y-130239723D01*
X67568805Y-130017349D01*
X67598907Y-129852873D01*
X67617010Y-129751129D01*
X67629984Y-129667298D01*
X67636469Y-129610993D01*
X67635868Y-129591962D01*
X67620679Y-129605780D01*
X67589415Y-129654699D01*
X67545634Y-129732020D01*
X67492895Y-129831042D01*
X67434754Y-129945066D01*
X67374770Y-130067393D01*
X67316499Y-130191322D01*
X67309653Y-130206286D01*
X67118288Y-130664728D01*
X66956567Y-131133425D01*
X66827843Y-131601482D01*
X66735465Y-132058004D01*
X66730419Y-132089419D01*
X66718622Y-132186515D01*
X66707801Y-132316746D01*
X66698329Y-132469767D01*
X66690577Y-132635235D01*
X66684919Y-132802803D01*
X66681727Y-132962127D01*
X66681374Y-133102863D01*
X66684232Y-133214666D01*
X66688002Y-133267055D01*
X66734374Y-133573300D01*
X66806823Y-133879009D01*
X66901236Y-134169305D01*
X67003999Y-134410055D01*
X67095346Y-134566526D01*
X67209883Y-134715095D01*
X67338071Y-134845596D01*
X67470373Y-134947866D01*
X67550991Y-134992969D01*
X67761422Y-135065891D01*
X67989451Y-135097341D01*
X68232788Y-135087526D01*
X68489143Y-135036654D01*
X68756227Y-134944933D01*
X68924900Y-134868289D01*
X69034091Y-134812687D01*
X69102557Y-134773791D01*
X69131955Y-134749973D01*
X69123946Y-134739602D01*
G36*
X66822358Y-130720478D02*
G01*
X66712310Y-130672142D01*
X66594162Y-130632662D01*
X66485219Y-130607180D01*
X66417955Y-130600329D01*
X66272768Y-130621646D01*
X66130846Y-130683682D01*
X66002906Y-130781580D01*
X65990313Y-130794159D01*
X65891940Y-130914335D01*
X65808449Y-131059679D01*
X65738349Y-131234464D01*
X65680148Y-131442963D01*
X65632353Y-131689447D01*
X65601919Y-131906038D01*
X65589234Y-132036533D01*
X65579366Y-132190939D01*
X65572554Y-132357697D01*
X65569034Y-132525245D01*
X65569045Y-132682024D01*
X65572824Y-132816475D01*
X65580608Y-132917036D01*
X65581071Y-132920691D01*
X65641951Y-133247060D01*
X65735893Y-133548725D01*
X65861248Y-133823259D01*
X66016365Y-134068233D01*
X66199594Y-134281218D01*
X66409285Y-134459786D01*
X66643787Y-134601509D01*
X66758397Y-134653197D01*
X66829022Y-134680205D01*
X66880427Y-134696677D01*
X66900060Y-134699228D01*
X66890814Y-134678583D01*
X66858983Y-134630976D01*
X66810792Y-134565543D01*
X66794821Y-134544765D01*
X66589161Y-134242275D01*
X66418207Y-133910421D01*
X66283002Y-133551449D01*
X66208637Y-133278600D01*
X66184813Y-133144867D01*
X66166138Y-132978254D01*
X66153129Y-132791831D01*
X66146305Y-132598670D01*
X66146183Y-132411839D01*
X66153282Y-132244409D01*
X66163518Y-132140470D01*
X66213299Y-131854683D01*
X66282031Y-131595866D01*
X66368135Y-131367145D01*
X66470029Y-131171645D01*
X66586135Y-131012492D01*
X66714872Y-130892811D01*
X66827719Y-130826775D01*
X66936544Y-130778637D01*
X66822358Y-130720478D01*
G37*
X66822358Y-130720478D02*
X66712310Y-130672142D01*
X66594162Y-130632662D01*
X66485219Y-130607180D01*
X66417955Y-130600329D01*
X66272768Y-130621646D01*
X66130846Y-130683682D01*
X66002906Y-130781580D01*
X65990313Y-130794159D01*
X65891940Y-130914335D01*
X65808449Y-131059679D01*
X65738349Y-131234464D01*
X65680148Y-131442963D01*
X65632353Y-131689447D01*
X65601919Y-131906038D01*
X65589234Y-132036533D01*
X65579366Y-132190939D01*
X65572554Y-132357697D01*
X65569034Y-132525245D01*
X65569045Y-132682024D01*
X65572824Y-132816475D01*
X65580608Y-132917036D01*
X65581071Y-132920691D01*
X65641951Y-133247060D01*
X65735893Y-133548725D01*
X65861248Y-133823259D01*
X66016365Y-134068233D01*
X66199594Y-134281218D01*
X66409285Y-134459786D01*
X66643787Y-134601509D01*
X66758397Y-134653197D01*
X66829022Y-134680205D01*
X66880427Y-134696677D01*
X66900060Y-134699228D01*
X66890814Y-134678583D01*
X66858983Y-134630976D01*
X66810792Y-134565543D01*
X66794821Y-134544765D01*
X66589161Y-134242275D01*
X66418207Y-133910421D01*
X66283002Y-133551449D01*
X66208637Y-133278600D01*
X66184813Y-133144867D01*
X66166138Y-132978254D01*
X66153129Y-132791831D01*
X66146305Y-132598670D01*
X66146183Y-132411839D01*
X66153282Y-132244409D01*
X66163518Y-132140470D01*
X66213299Y-131854683D01*
X66282031Y-131595866D01*
X66368135Y-131367145D01*
X66470029Y-131171645D01*
X66586135Y-131012492D01*
X66714872Y-130892811D01*
X66827719Y-130826775D01*
X66936544Y-130778637D01*
X66822358Y-130720478D01*
G36*
X66406292Y-134759203D02*
G01*
X66359576Y-134749264D01*
X66347480Y-134747394D01*
X66160345Y-134696114D01*
X65984429Y-134600225D01*
X65820013Y-134459989D01*
X65667377Y-134275664D01*
X65526804Y-134047510D01*
X65470472Y-133936691D01*
X65343278Y-133619307D01*
X65258031Y-133285070D01*
X65214891Y-132936799D01*
X65214022Y-132577310D01*
X65255584Y-132209419D01*
X65339740Y-131835942D01*
X65348059Y-131806799D01*
X65372396Y-131718239D01*
X65389213Y-131647959D01*
X65396094Y-131606535D01*
X65395307Y-131600129D01*
X65377356Y-131612051D01*
X65339352Y-131655242D01*
X65286613Y-131722384D01*
X65224457Y-131806155D01*
X65158200Y-131899237D01*
X65093162Y-131994310D01*
X65034658Y-132084055D01*
X64988996Y-132159419D01*
X64844716Y-132444229D01*
X64732519Y-132735618D01*
X64653989Y-133026870D01*
X64610713Y-133311272D01*
X64604276Y-133582107D01*
X64618068Y-133730483D01*
X64668796Y-133977595D01*
X64747066Y-134205666D01*
X64849825Y-134409594D01*
X64974017Y-134584273D01*
X65116588Y-134724597D01*
X65272872Y-134824683D01*
X65472146Y-134896135D01*
X65690181Y-134927129D01*
X65923327Y-134917589D01*
X66167932Y-134867434D01*
X66239793Y-134845509D01*
X66340433Y-134811473D01*
X66399726Y-134787569D01*
X66420677Y-134771059D01*
X66406292Y-134759203D01*
G37*
X66406292Y-134759203D02*
X66359576Y-134749264D01*
X66347480Y-134747394D01*
X66160345Y-134696114D01*
X65984429Y-134600225D01*
X65820013Y-134459989D01*
X65667377Y-134275664D01*
X65526804Y-134047510D01*
X65470472Y-133936691D01*
X65343278Y-133619307D01*
X65258031Y-133285070D01*
X65214891Y-132936799D01*
X65214022Y-132577310D01*
X65255584Y-132209419D01*
X65339740Y-131835942D01*
X65348059Y-131806799D01*
X65372396Y-131718239D01*
X65389213Y-131647959D01*
X65396094Y-131606535D01*
X65395307Y-131600129D01*
X65377356Y-131612051D01*
X65339352Y-131655242D01*
X65286613Y-131722384D01*
X65224457Y-131806155D01*
X65158200Y-131899237D01*
X65093162Y-131994310D01*
X65034658Y-132084055D01*
X64988996Y-132159419D01*
X64844716Y-132444229D01*
X64732519Y-132735618D01*
X64653989Y-133026870D01*
X64610713Y-133311272D01*
X64604276Y-133582107D01*
X64618068Y-133730483D01*
X64668796Y-133977595D01*
X64747066Y-134205666D01*
X64849825Y-134409594D01*
X64974017Y-134584273D01*
X65116588Y-134724597D01*
X65272872Y-134824683D01*
X65472146Y-134896135D01*
X65690181Y-134927129D01*
X65923327Y-134917589D01*
X66167932Y-134867434D01*
X66239793Y-134845509D01*
X66340433Y-134811473D01*
X66399726Y-134787569D01*
X66420677Y-134771059D01*
X66406292Y-134759203D01*
G36*
X64914108Y-134895492D02*
G01*
X64738083Y-134817319D01*
X64585163Y-134701210D01*
X64457059Y-134550154D01*
X64355482Y-134367142D01*
X64282144Y-134155164D01*
X64238756Y-133917212D01*
X64226702Y-133694237D01*
X64246395Y-133414283D01*
X64306142Y-133155912D01*
X64406942Y-132916056D01*
X64549798Y-132691648D01*
X64556761Y-132682478D01*
X64668259Y-132536627D01*
X64591398Y-132575536D01*
X64392272Y-132688714D01*
X64196093Y-132823001D01*
X64015274Y-132968883D01*
X63862232Y-133116844D01*
X63814504Y-133170963D01*
X63677050Y-133366156D01*
X63583181Y-133569851D01*
X63533692Y-133779539D01*
X63529378Y-133992713D01*
X63535882Y-134049294D01*
X63581435Y-134227896D01*
X63662508Y-134401869D01*
X63772066Y-134561051D01*
X63903071Y-134695283D01*
X64048487Y-134794403D01*
X64053748Y-134797110D01*
X64190354Y-134854122D01*
X64351509Y-134901666D01*
X64523689Y-134937401D01*
X64693367Y-134958984D01*
X64847020Y-134964071D01*
X64956211Y-134953432D01*
X65045627Y-134936428D01*
X64914108Y-134895492D01*
G37*
X64914108Y-134895492D02*
X64738083Y-134817319D01*
X64585163Y-134701210D01*
X64457059Y-134550154D01*
X64355482Y-134367142D01*
X64282144Y-134155164D01*
X64238756Y-133917212D01*
X64226702Y-133694237D01*
X64246395Y-133414283D01*
X64306142Y-133155912D01*
X64406942Y-132916056D01*
X64549798Y-132691648D01*
X64556761Y-132682478D01*
X64668259Y-132536627D01*
X64591398Y-132575536D01*
X64392272Y-132688714D01*
X64196093Y-132823001D01*
X64015274Y-132968883D01*
X63862232Y-133116844D01*
X63814504Y-133170963D01*
X63677050Y-133366156D01*
X63583181Y-133569851D01*
X63533692Y-133779539D01*
X63529378Y-133992713D01*
X63535882Y-134049294D01*
X63581435Y-134227896D01*
X63662508Y-134401869D01*
X63772066Y-134561051D01*
X63903071Y-134695283D01*
X64048487Y-134794403D01*
X64053748Y-134797110D01*
X64190354Y-134854122D01*
X64351509Y-134901666D01*
X64523689Y-134937401D01*
X64693367Y-134958984D01*
X64847020Y-134964071D01*
X64956211Y-134953432D01*
X65045627Y-134936428D01*
X64914108Y-134895492D01*
G36*
X65634445Y-121571510D02*
G01*
X65634445Y-122610600D01*
X62470991Y-122610600D01*
X62470991Y-123118600D01*
X65634445Y-123118600D01*
X65634445Y-124157691D01*
X66119355Y-124157691D01*
X66119355Y-121571510D01*
X65634445Y-121571510D01*
G37*
X65634445Y-121571510D02*
X65634445Y-122610600D01*
X62470991Y-122610600D01*
X62470991Y-123118600D01*
X65634445Y-123118600D01*
X65634445Y-124157691D01*
X66119355Y-124157691D01*
X66119355Y-121571510D01*
X65634445Y-121571510D01*
G36*
X66142270Y-129509010D02*
G01*
X66141550Y-129258076D01*
X66139176Y-129048104D01*
X66134629Y-128873883D01*
X66127385Y-128730209D01*
X66116923Y-128611871D01*
X66102720Y-128513663D01*
X66084255Y-128430378D01*
X66061006Y-128356807D01*
X66032450Y-128287744D01*
X66016494Y-128254237D01*
X65905701Y-128079617D01*
X65762915Y-127935193D01*
X65592967Y-127823290D01*
X65400690Y-127746235D01*
X65190915Y-127706355D01*
X64968475Y-127705977D01*
X64895639Y-127714545D01*
X64678368Y-127766733D01*
X64488470Y-127855063D01*
X64327542Y-127978453D01*
X64197184Y-128135825D01*
X64147434Y-128220262D01*
X64062161Y-128382536D01*
X63941985Y-128316300D01*
X63871403Y-128277930D01*
X63773478Y-128225453D01*
X63653783Y-128161790D01*
X63517891Y-128089862D01*
X63371375Y-128012592D01*
X63219810Y-127932899D01*
X63068768Y-127853705D01*
X62923823Y-127777932D01*
X62790548Y-127708500D01*
X62674516Y-127648332D01*
X62581300Y-127600347D01*
X62516474Y-127567467D01*
X62485612Y-127552614D01*
X62483907Y-127552055D01*
X62479146Y-127573730D01*
X62475176Y-127633095D01*
X62472355Y-127721659D01*
X62471042Y-127830933D01*
X62470991Y-127858170D01*
X62470991Y-128164285D01*
X63244536Y-128550852D01*
X64018082Y-128937419D01*
X64018082Y-129699510D01*
X62470991Y-129699510D01*
X62470991Y-130207510D01*
X64523824Y-130207510D01*
X64523824Y-129699510D01*
X64530726Y-129124328D01*
X64537627Y-128549146D01*
X64608130Y-128462090D01*
X64672886Y-128396698D01*
X64748299Y-128339930D01*
X64769767Y-128327540D01*
X64863675Y-128294851D01*
X64984697Y-128275267D01*
X65115316Y-128270022D01*
X65238015Y-128280349D01*
X65288348Y-128291036D01*
X65389738Y-128337430D01*
X65486139Y-128414275D01*
X65563938Y-128508316D01*
X65608568Y-128602768D01*
X65617120Y-128657737D01*
X65624261Y-128752181D01*
X65629701Y-128879406D01*
X65633149Y-129032719D01*
X65634317Y-129197282D01*
X65634445Y-129699510D01*
X64523824Y-129699510D01*
X64523824Y-130207510D01*
X66142445Y-130207510D01*
X66142270Y-129509010D01*
G37*
X66142270Y-129509010D02*
X66141550Y-129258076D01*
X66139176Y-129048104D01*
X66134629Y-128873883D01*
X66127385Y-128730209D01*
X66116923Y-128611871D01*
X66102720Y-128513663D01*
X66084255Y-128430378D01*
X66061006Y-128356807D01*
X66032450Y-128287744D01*
X66016494Y-128254237D01*
X65905701Y-128079617D01*
X65762915Y-127935193D01*
X65592967Y-127823290D01*
X65400690Y-127746235D01*
X65190915Y-127706355D01*
X64968475Y-127705977D01*
X64895639Y-127714545D01*
X64678368Y-127766733D01*
X64488470Y-127855063D01*
X64327542Y-127978453D01*
X64197184Y-128135825D01*
X64147434Y-128220262D01*
X64062161Y-128382536D01*
X63941985Y-128316300D01*
X63871403Y-128277930D01*
X63773478Y-128225453D01*
X63653783Y-128161790D01*
X63517891Y-128089862D01*
X63371375Y-128012592D01*
X63219810Y-127932899D01*
X63068768Y-127853705D01*
X62923823Y-127777932D01*
X62790548Y-127708500D01*
X62674516Y-127648332D01*
X62581300Y-127600347D01*
X62516474Y-127567467D01*
X62485612Y-127552614D01*
X62483907Y-127552055D01*
X62479146Y-127573730D01*
X62475176Y-127633095D01*
X62472355Y-127721659D01*
X62471042Y-127830933D01*
X62470991Y-127858170D01*
X62470991Y-128164285D01*
X63244536Y-128550852D01*
X64018082Y-128937419D01*
X64018082Y-129699510D01*
X62470991Y-129699510D01*
X62470991Y-130207510D01*
X64523824Y-130207510D01*
X64523824Y-129699510D01*
X64530726Y-129124328D01*
X64537627Y-128549146D01*
X64608130Y-128462090D01*
X64672886Y-128396698D01*
X64748299Y-128339930D01*
X64769767Y-128327540D01*
X64863675Y-128294851D01*
X64984697Y-128275267D01*
X65115316Y-128270022D01*
X65238015Y-128280349D01*
X65288348Y-128291036D01*
X65389738Y-128337430D01*
X65486139Y-128414275D01*
X65563938Y-128508316D01*
X65608568Y-128602768D01*
X65617120Y-128657737D01*
X65624261Y-128752181D01*
X65629701Y-128879406D01*
X65633149Y-129032719D01*
X65634317Y-129197282D01*
X65634445Y-129699510D01*
X64523824Y-129699510D01*
X64523824Y-130207510D01*
X66142445Y-130207510D01*
X66142270Y-129509010D01*
G36*
X63610166Y-134691254D02*
G01*
X63562345Y-134632740D01*
X63548956Y-134617710D01*
X63422834Y-134452741D01*
X63325858Y-134274318D01*
X63260358Y-134090286D01*
X63228661Y-133908494D01*
X63233096Y-133736789D01*
X63256840Y-133633128D01*
X63317484Y-133502936D01*
X63407319Y-133378599D01*
X63511928Y-133279944D01*
X63515559Y-133277287D01*
X63609375Y-133209328D01*
X63528053Y-133209328D01*
X63447963Y-133217232D01*
X63338782Y-133238458D01*
X63214334Y-133269277D01*
X63088446Y-133305958D01*
X62974943Y-133344772D01*
X62887653Y-133381990D01*
X62887280Y-133382179D01*
X62758106Y-133461657D01*
X62644968Y-133557932D01*
X62557584Y-133661401D01*
X62507233Y-133757735D01*
X62478645Y-133868562D01*
X62477532Y-133967612D01*
X62497803Y-134061696D01*
X62532356Y-134128946D01*
X62597233Y-134211144D01*
X62683227Y-134299365D01*
X62781130Y-134384684D01*
X62881733Y-134458176D01*
X62946532Y-134496602D01*
X63021375Y-134531942D01*
X63119898Y-134572919D01*
X63231637Y-134615820D01*
X63346128Y-134656930D01*
X63452910Y-134692534D01*
X63541519Y-134718916D01*
X63601491Y-134732362D01*
X63613282Y-134733328D01*
X63626414Y-134723467D01*
X63610166Y-134691254D01*
G37*
X63610166Y-134691254D02*
X63562345Y-134632740D01*
X63548956Y-134617710D01*
X63422834Y-134452741D01*
X63325858Y-134274318D01*
X63260358Y-134090286D01*
X63228661Y-133908494D01*
X63233096Y-133736789D01*
X63256840Y-133633128D01*
X63317484Y-133502936D01*
X63407319Y-133378599D01*
X63511928Y-133279944D01*
X63515559Y-133277287D01*
X63609375Y-133209328D01*
X63528053Y-133209328D01*
X63447963Y-133217232D01*
X63338782Y-133238458D01*
X63214334Y-133269277D01*
X63088446Y-133305958D01*
X62974943Y-133344772D01*
X62887653Y-133381990D01*
X62887280Y-133382179D01*
X62758106Y-133461657D01*
X62644968Y-133557932D01*
X62557584Y-133661401D01*
X62507233Y-133757735D01*
X62478645Y-133868562D01*
X62477532Y-133967612D01*
X62497803Y-134061696D01*
X62532356Y-134128946D01*
X62597233Y-134211144D01*
X62683227Y-134299365D01*
X62781130Y-134384684D01*
X62881733Y-134458176D01*
X62946532Y-134496602D01*
X63021375Y-134531942D01*
X63119898Y-134572919D01*
X63231637Y-134615820D01*
X63346128Y-134656930D01*
X63452910Y-134692534D01*
X63541519Y-134718916D01*
X63601491Y-134732362D01*
X63613282Y-134733328D01*
X63626414Y-134723467D01*
X63610166Y-134691254D01*
G36*
X65105934Y-117496201D02*
G01*
X65081846Y-117350327D01*
X65059969Y-117274492D01*
X64970830Y-117084682D01*
X64853607Y-116931481D01*
X64728025Y-116827430D01*
X64672809Y-116792286D01*
X64619829Y-116763041D01*
X64564348Y-116739156D01*
X64501630Y-116720090D01*
X64426939Y-116705305D01*
X64335539Y-116694259D01*
X64222695Y-116686415D01*
X64083670Y-116681231D01*
X63913729Y-116678168D01*
X63708135Y-116676687D01*
X63462153Y-116676247D01*
X63401321Y-116676237D01*
X62470991Y-116676237D01*
X62470991Y-117161146D01*
X62657937Y-117161146D01*
X62589971Y-117259931D01*
X62542329Y-117343122D01*
X62499518Y-117440671D01*
X62484953Y-117483485D01*
X62464309Y-117588093D01*
X62452652Y-117722082D01*
X62450011Y-117869527D01*
X62456419Y-118014504D01*
X62471904Y-118141089D01*
X62483579Y-118194449D01*
X62537022Y-118350186D01*
X62607572Y-118473844D01*
X62702855Y-118578538D01*
X62711321Y-118586088D01*
X62832503Y-118670641D01*
X62972784Y-118724752D01*
X63140205Y-118750965D01*
X63215830Y-118753506D01*
X63215830Y-118261065D01*
X63102826Y-118238060D01*
X63016078Y-118189156D01*
X62950177Y-118108769D01*
X62899715Y-117991318D01*
X62877249Y-117911600D01*
X62871183Y-117853730D01*
X62870909Y-117764448D01*
X62875519Y-117658036D01*
X62884107Y-117548777D01*
X62895769Y-117450953D01*
X62909596Y-117378844D01*
X62911469Y-117372225D01*
X62943492Y-117298088D01*
X62986672Y-117234814D01*
X62995736Y-117225469D01*
X63023789Y-117202764D01*
X63057139Y-117187204D01*
X63105196Y-117177079D01*
X63177371Y-117170679D01*
X63283076Y-117166296D01*
X63328936Y-117164944D01*
X63606026Y-117157196D01*
X63598463Y-117607817D01*
X63595480Y-117764629D01*
X63592033Y-117882219D01*
X63587374Y-117967549D01*
X63580755Y-118027579D01*
X63571430Y-118069269D01*
X63558650Y-118099579D01*
X63543077Y-118123565D01*
X63453781Y-118209573D01*
X63342130Y-118255272D01*
X63215830Y-118261065D01*
X63215830Y-118753506D01*
X63242997Y-118754419D01*
X63411429Y-118746387D01*
X63546891Y-118719801D01*
X63660152Y-118670923D01*
X63761982Y-118596017D01*
X63798062Y-118561814D01*
X63857241Y-118499781D01*
X63903873Y-118441263D01*
X63939572Y-118379662D01*
X63965949Y-118308382D01*
X63984617Y-118220825D01*
X63997186Y-118110397D01*
X64005270Y-117970498D01*
X64010480Y-117794534D01*
X64012639Y-117683699D01*
X64021925Y-117155616D01*
X64164322Y-117171576D01*
X64330512Y-117204638D01*
X64460054Y-117263791D01*
X64555897Y-117351363D01*
X64620991Y-117469681D01*
X64645317Y-117551129D01*
X64658938Y-117691033D01*
X64643482Y-117849394D01*
X64601440Y-118010961D01*
X64550391Y-118132174D01*
X64483624Y-118263563D01*
X64613301Y-118451394D01*
X64742979Y-118639224D01*
X64817597Y-118566902D01*
X64888477Y-118480582D01*
X64960690Y-118361719D01*
X65027133Y-118223176D01*
X65071008Y-118107873D01*
X65099845Y-117981999D01*
X65115141Y-117827672D01*
X65117101Y-117660528D01*
X65105934Y-117496201D01*
G37*
X65105934Y-117496201D02*
X65081846Y-117350327D01*
X65059969Y-117274492D01*
X64970830Y-117084682D01*
X64853607Y-116931481D01*
X64728025Y-116827430D01*
X64672809Y-116792286D01*
X64619829Y-116763041D01*
X64564348Y-116739156D01*
X64501630Y-116720090D01*
X64426939Y-116705305D01*
X64335539Y-116694259D01*
X64222695Y-116686415D01*
X64083670Y-116681231D01*
X63913729Y-116678168D01*
X63708135Y-116676687D01*
X63462153Y-116676247D01*
X63401321Y-116676237D01*
X62470991Y-116676237D01*
X62470991Y-117161146D01*
X62657937Y-117161146D01*
X62589971Y-117259931D01*
X62542329Y-117343122D01*
X62499518Y-117440671D01*
X62484953Y-117483485D01*
X62464309Y-117588093D01*
X62452652Y-117722082D01*
X62450011Y-117869527D01*
X62456419Y-118014504D01*
X62471904Y-118141089D01*
X62483579Y-118194449D01*
X62537022Y-118350186D01*
X62607572Y-118473844D01*
X62702855Y-118578538D01*
X62711321Y-118586088D01*
X62832503Y-118670641D01*
X62972784Y-118724752D01*
X63140205Y-118750965D01*
X63215830Y-118753506D01*
X63215830Y-118261065D01*
X63102826Y-118238060D01*
X63016078Y-118189156D01*
X62950177Y-118108769D01*
X62899715Y-117991318D01*
X62877249Y-117911600D01*
X62871183Y-117853730D01*
X62870909Y-117764448D01*
X62875519Y-117658036D01*
X62884107Y-117548777D01*
X62895769Y-117450953D01*
X62909596Y-117378844D01*
X62911469Y-117372225D01*
X62943492Y-117298088D01*
X62986672Y-117234814D01*
X62995736Y-117225469D01*
X63023789Y-117202764D01*
X63057139Y-117187204D01*
X63105196Y-117177079D01*
X63177371Y-117170679D01*
X63283076Y-117166296D01*
X63328936Y-117164944D01*
X63606026Y-117157196D01*
X63598463Y-117607817D01*
X63595480Y-117764629D01*
X63592033Y-117882219D01*
X63587374Y-117967549D01*
X63580755Y-118027579D01*
X63571430Y-118069269D01*
X63558650Y-118099579D01*
X63543077Y-118123565D01*
X63453781Y-118209573D01*
X63342130Y-118255272D01*
X63215830Y-118261065D01*
X63215830Y-118753506D01*
X63242997Y-118754419D01*
X63411429Y-118746387D01*
X63546891Y-118719801D01*
X63660152Y-118670923D01*
X63761982Y-118596017D01*
X63798062Y-118561814D01*
X63857241Y-118499781D01*
X63903873Y-118441263D01*
X63939572Y-118379662D01*
X63965949Y-118308382D01*
X63984617Y-118220825D01*
X63997186Y-118110397D01*
X64005270Y-117970498D01*
X64010480Y-117794534D01*
X64012639Y-117683699D01*
X64021925Y-117155616D01*
X64164322Y-117171576D01*
X64330512Y-117204638D01*
X64460054Y-117263791D01*
X64555897Y-117351363D01*
X64620991Y-117469681D01*
X64645317Y-117551129D01*
X64658938Y-117691033D01*
X64643482Y-117849394D01*
X64601440Y-118010961D01*
X64550391Y-118132174D01*
X64483624Y-118263563D01*
X64613301Y-118451394D01*
X64742979Y-118639224D01*
X64817597Y-118566902D01*
X64888477Y-118480582D01*
X64960690Y-118361719D01*
X65027133Y-118223176D01*
X65071008Y-118107873D01*
X65099845Y-117981999D01*
X65115141Y-117827672D01*
X65117101Y-117660528D01*
X65105934Y-117496201D01*
G36*
X66148323Y-125581209D02*
G01*
X66129171Y-125433100D01*
X66099408Y-125314856D01*
X66003024Y-125099063D01*
X65876182Y-124915685D01*
X65716300Y-124762136D01*
X65520793Y-124635836D01*
X65337025Y-124552688D01*
X65295568Y-124537062D01*
X65257120Y-124524425D01*
X65216316Y-124514405D01*
X65167791Y-124506628D01*
X65106181Y-124500722D01*
X65026120Y-124496315D01*
X64922243Y-124493032D01*
X64789186Y-124490501D01*
X64621584Y-124488350D01*
X64414073Y-124486206D01*
X64374752Y-124485818D01*
X64133702Y-124483841D01*
X63933249Y-124483516D01*
X63767823Y-124485482D01*
X63631850Y-124490379D01*
X63519758Y-124498845D01*
X63425975Y-124511520D01*
X63344928Y-124529043D01*
X63271046Y-124552053D01*
X63198755Y-124581189D01*
X63122483Y-124617091D01*
X63090294Y-124633146D01*
X62899897Y-124754309D01*
X62737042Y-124910094D01*
X62605846Y-125095321D01*
X62510430Y-125304810D01*
X62482284Y-125397747D01*
X62461329Y-125518141D01*
X62450872Y-125666514D01*
X62450723Y-125826208D01*
X62460688Y-125980565D01*
X62480577Y-126112927D01*
X62491001Y-126155055D01*
X62576537Y-126372443D01*
X62699294Y-126564939D01*
X62855696Y-126729285D01*
X63042162Y-126862222D01*
X63255113Y-126960492D01*
X63429264Y-127009317D01*
X63513426Y-127021257D01*
X63635710Y-127030866D01*
X63788115Y-127038152D01*
X63962640Y-127043122D01*
X64151283Y-127045785D01*
X64346044Y-127046147D01*
X64378221Y-127045826D01*
X64378221Y-126509957D01*
X64214180Y-126508312D01*
X64018259Y-126505620D01*
X63862599Y-126502771D01*
X63741280Y-126499335D01*
X63648382Y-126494884D01*
X63577984Y-126488990D01*
X63524167Y-126481225D01*
X63481011Y-126471159D01*
X63442595Y-126458366D01*
X63424166Y-126451156D01*
X63255820Y-126361841D01*
X63124396Y-126244797D01*
X63029853Y-126099981D01*
X62985865Y-125983015D01*
X62967149Y-125868410D01*
X62965477Y-125732620D01*
X62979578Y-125595321D01*
X63008183Y-125476192D01*
X63020646Y-125444092D01*
X63110971Y-125295833D01*
X63237417Y-125173610D01*
X63377037Y-125090376D01*
X63521627Y-125023600D01*
X64283627Y-125023600D01*
X64495813Y-125023833D01*
X64667215Y-125024702D01*
X64803230Y-125026463D01*
X64909254Y-125029370D01*
X64990683Y-125033680D01*
X65052914Y-125039647D01*
X65101344Y-125047529D01*
X65141368Y-125057579D01*
X65165279Y-125065342D01*
X65327357Y-125144459D01*
X65458590Y-125255568D01*
X65556482Y-125394204D01*
X65618538Y-125555902D01*
X65642260Y-125736197D01*
X65630843Y-125898071D01*
X65592028Y-126053179D01*
X65525708Y-126180654D01*
X65434357Y-126285380D01*
X65367972Y-126344252D01*
X65301177Y-126392392D01*
X65228686Y-126430765D01*
X65145216Y-126460336D01*
X65045481Y-126482071D01*
X64924199Y-126496935D01*
X64776084Y-126505893D01*
X64595853Y-126509912D01*
X64378221Y-126509957D01*
X64378221Y-127045826D01*
X64538922Y-127044217D01*
X64721915Y-127040003D01*
X64887024Y-127033512D01*
X65026247Y-127024752D01*
X65131582Y-127013731D01*
X65167828Y-127007626D01*
X65388947Y-126944231D01*
X65582206Y-126848320D01*
X65756667Y-126715117D01*
X65798612Y-126675227D01*
X65912407Y-126549811D01*
X66000199Y-126420198D01*
X66071948Y-126270141D01*
X66110389Y-126166600D01*
X66137430Y-126050566D01*
X66152641Y-125904571D01*
X66156209Y-125743242D01*
X66148323Y-125581209D01*
G37*
X66148323Y-125581209D02*
X66129171Y-125433100D01*
X66099408Y-125314856D01*
X66003024Y-125099063D01*
X65876182Y-124915685D01*
X65716300Y-124762136D01*
X65520793Y-124635836D01*
X65337025Y-124552688D01*
X65295568Y-124537062D01*
X65257120Y-124524425D01*
X65216316Y-124514405D01*
X65167791Y-124506628D01*
X65106181Y-124500722D01*
X65026120Y-124496315D01*
X64922243Y-124493032D01*
X64789186Y-124490501D01*
X64621584Y-124488350D01*
X64414073Y-124486206D01*
X64374752Y-124485818D01*
X64133702Y-124483841D01*
X63933249Y-124483516D01*
X63767823Y-124485482D01*
X63631850Y-124490379D01*
X63519758Y-124498845D01*
X63425975Y-124511520D01*
X63344928Y-124529043D01*
X63271046Y-124552053D01*
X63198755Y-124581189D01*
X63122483Y-124617091D01*
X63090294Y-124633146D01*
X62899897Y-124754309D01*
X62737042Y-124910094D01*
X62605846Y-125095321D01*
X62510430Y-125304810D01*
X62482284Y-125397747D01*
X62461329Y-125518141D01*
X62450872Y-125666514D01*
X62450723Y-125826208D01*
X62460688Y-125980565D01*
X62480577Y-126112927D01*
X62491001Y-126155055D01*
X62576537Y-126372443D01*
X62699294Y-126564939D01*
X62855696Y-126729285D01*
X63042162Y-126862222D01*
X63255113Y-126960492D01*
X63429264Y-127009317D01*
X63513426Y-127021257D01*
X63635710Y-127030866D01*
X63788115Y-127038152D01*
X63962640Y-127043122D01*
X64151283Y-127045785D01*
X64346044Y-127046147D01*
X64378221Y-127045826D01*
X64378221Y-126509957D01*
X64214180Y-126508312D01*
X64018259Y-126505620D01*
X63862599Y-126502771D01*
X63741280Y-126499335D01*
X63648382Y-126494884D01*
X63577984Y-126488990D01*
X63524167Y-126481225D01*
X63481011Y-126471159D01*
X63442595Y-126458366D01*
X63424166Y-126451156D01*
X63255820Y-126361841D01*
X63124396Y-126244797D01*
X63029853Y-126099981D01*
X62985865Y-125983015D01*
X62967149Y-125868410D01*
X62965477Y-125732620D01*
X62979578Y-125595321D01*
X63008183Y-125476192D01*
X63020646Y-125444092D01*
X63110971Y-125295833D01*
X63237417Y-125173610D01*
X63377037Y-125090376D01*
X63521627Y-125023600D01*
X64283627Y-125023600D01*
X64495813Y-125023833D01*
X64667215Y-125024702D01*
X64803230Y-125026463D01*
X64909254Y-125029370D01*
X64990683Y-125033680D01*
X65052914Y-125039647D01*
X65101344Y-125047529D01*
X65141368Y-125057579D01*
X65165279Y-125065342D01*
X65327357Y-125144459D01*
X65458590Y-125255568D01*
X65556482Y-125394204D01*
X65618538Y-125555902D01*
X65642260Y-125736197D01*
X65630843Y-125898071D01*
X65592028Y-126053179D01*
X65525708Y-126180654D01*
X65434357Y-126285380D01*
X65367972Y-126344252D01*
X65301177Y-126392392D01*
X65228686Y-126430765D01*
X65145216Y-126460336D01*
X65045481Y-126482071D01*
X64924199Y-126496935D01*
X64776084Y-126505893D01*
X64595853Y-126509912D01*
X64378221Y-126509957D01*
X64378221Y-127045826D01*
X64538922Y-127044217D01*
X64721915Y-127040003D01*
X64887024Y-127033512D01*
X65026247Y-127024752D01*
X65131582Y-127013731D01*
X65167828Y-127007626D01*
X65388947Y-126944231D01*
X65582206Y-126848320D01*
X65756667Y-126715117D01*
X65798612Y-126675227D01*
X65912407Y-126549811D01*
X66000199Y-126420198D01*
X66071948Y-126270141D01*
X66110389Y-126166600D01*
X66137430Y-126050566D01*
X66152641Y-125904571D01*
X66156209Y-125743242D01*
X66148323Y-125581209D01*
G36*
X62469478Y-113905328D02*
G01*
X62476007Y-114165100D01*
X62482536Y-114424873D01*
X62615504Y-114436419D01*
X62748472Y-114447964D01*
X62652382Y-114540328D01*
X62584835Y-114618280D01*
X62522994Y-114710751D01*
X62500831Y-114752985D01*
X62460206Y-114876933D01*
X62437152Y-115023658D01*
X62433775Y-115172420D01*
X62447169Y-115281391D01*
X62507630Y-115469212D01*
X62602979Y-115627593D01*
X62734073Y-115757428D01*
X62901769Y-115859613D01*
X63059495Y-115921003D01*
X63113928Y-115937106D01*
X63166554Y-115949426D01*
X63224506Y-115958462D01*
X63294917Y-115964710D01*
X63384918Y-115968670D01*
X63501644Y-115970839D01*
X63652226Y-115971717D01*
X63775627Y-115971818D01*
X63775627Y-115440873D01*
X63608327Y-115440614D01*
X63480405Y-115439463D01*
X63385062Y-115436855D01*
X63315497Y-115432228D01*
X63264908Y-115425019D01*
X63226493Y-115414664D01*
X63193453Y-115400601D01*
X63175264Y-115391166D01*
X63103966Y-115346178D01*
X63041428Y-115296075D01*
X63029238Y-115283951D01*
X62968499Y-115189665D01*
X62929001Y-115067458D01*
X62913327Y-114931654D01*
X62924058Y-114796577D01*
X62933825Y-114754636D01*
X62988344Y-114638882D01*
X63077652Y-114540714D01*
X63174308Y-114479822D01*
X63210316Y-114465733D01*
X63252510Y-114455088D01*
X63307608Y-114447412D01*
X63382328Y-114442231D01*
X63483390Y-114439071D01*
X63617512Y-114437458D01*
X63782142Y-114436926D01*
X63984247Y-114437978D01*
X64145843Y-114442692D01*
X64272560Y-114452734D01*
X64370028Y-114469776D01*
X64443877Y-114495486D01*
X64499737Y-114531534D01*
X64543238Y-114579590D01*
X64580011Y-114641322D01*
X64598109Y-114678873D01*
X64624175Y-114766509D01*
X64638579Y-114878785D01*
X64640543Y-114996446D01*
X64629286Y-115100235D01*
X64616976Y-115144961D01*
X64561567Y-115238211D01*
X64472397Y-115326815D01*
X64375991Y-115391033D01*
X64343051Y-115407397D01*
X64308506Y-115419735D01*
X64265555Y-115428613D01*
X64207398Y-115434595D01*
X64127233Y-115438244D01*
X64018262Y-115440127D01*
X63873683Y-115440807D01*
X63775627Y-115440873D01*
X63775627Y-115971818D01*
X63787173Y-115971828D01*
X63996866Y-115970746D01*
X64167289Y-115966809D01*
X64305324Y-115958814D01*
X64417852Y-115945555D01*
X64511757Y-115925830D01*
X64593920Y-115898434D01*
X64671222Y-115862162D01*
X64750547Y-115815810D01*
X64777687Y-115798520D01*
X64912926Y-115685181D01*
X65015946Y-115545335D01*
X65086051Y-115386223D01*
X65122546Y-115215090D01*
X65124736Y-115039177D01*
X65091923Y-114865726D01*
X65023414Y-114701980D01*
X64918511Y-114555181D01*
X64899091Y-114534555D01*
X64803224Y-114436419D01*
X66119355Y-114436419D01*
X66119355Y-113905328D01*
X62469478Y-113905328D01*
G37*
X62469478Y-113905328D02*
X62476007Y-114165100D01*
X62482536Y-114424873D01*
X62615504Y-114436419D01*
X62748472Y-114447964D01*
X62652382Y-114540328D01*
X62584835Y-114618280D01*
X62522994Y-114710751D01*
X62500831Y-114752985D01*
X62460206Y-114876933D01*
X62437152Y-115023658D01*
X62433775Y-115172420D01*
X62447169Y-115281391D01*
X62507630Y-115469212D01*
X62602979Y-115627593D01*
X62734073Y-115757428D01*
X62901769Y-115859613D01*
X63059495Y-115921003D01*
X63113928Y-115937106D01*
X63166554Y-115949426D01*
X63224506Y-115958462D01*
X63294917Y-115964710D01*
X63384918Y-115968670D01*
X63501644Y-115970839D01*
X63652226Y-115971717D01*
X63775627Y-115971818D01*
X63775627Y-115440873D01*
X63608327Y-115440614D01*
X63480405Y-115439463D01*
X63385062Y-115436855D01*
X63315497Y-115432228D01*
X63264908Y-115425019D01*
X63226493Y-115414664D01*
X63193453Y-115400601D01*
X63175264Y-115391166D01*
X63103966Y-115346178D01*
X63041428Y-115296075D01*
X63029238Y-115283951D01*
X62968499Y-115189665D01*
X62929001Y-115067458D01*
X62913327Y-114931654D01*
X62924058Y-114796577D01*
X62933825Y-114754636D01*
X62988344Y-114638882D01*
X63077652Y-114540714D01*
X63174308Y-114479822D01*
X63210316Y-114465733D01*
X63252510Y-114455088D01*
X63307608Y-114447412D01*
X63382328Y-114442231D01*
X63483390Y-114439071D01*
X63617512Y-114437458D01*
X63782142Y-114436926D01*
X63984247Y-114437978D01*
X64145843Y-114442692D01*
X64272560Y-114452734D01*
X64370028Y-114469776D01*
X64443877Y-114495486D01*
X64499737Y-114531534D01*
X64543238Y-114579590D01*
X64580011Y-114641322D01*
X64598109Y-114678873D01*
X64624175Y-114766509D01*
X64638579Y-114878785D01*
X64640543Y-114996446D01*
X64629286Y-115100235D01*
X64616976Y-115144961D01*
X64561567Y-115238211D01*
X64472397Y-115326815D01*
X64375991Y-115391033D01*
X64343051Y-115407397D01*
X64308506Y-115419735D01*
X64265555Y-115428613D01*
X64207398Y-115434595D01*
X64127233Y-115438244D01*
X64018262Y-115440127D01*
X63873683Y-115440807D01*
X63775627Y-115440873D01*
X63775627Y-115971818D01*
X63787173Y-115971828D01*
X63996866Y-115970746D01*
X64167289Y-115966809D01*
X64305324Y-115958814D01*
X64417852Y-115945555D01*
X64511757Y-115925830D01*
X64593920Y-115898434D01*
X64671222Y-115862162D01*
X64750547Y-115815810D01*
X64777687Y-115798520D01*
X64912926Y-115685181D01*
X65015946Y-115545335D01*
X65086051Y-115386223D01*
X65122546Y-115215090D01*
X65124736Y-115039177D01*
X65091923Y-114865726D01*
X65023414Y-114701980D01*
X64918511Y-114555181D01*
X64899091Y-114534555D01*
X64803224Y-114436419D01*
X66119355Y-114436419D01*
X66119355Y-113905328D01*
X62469478Y-113905328D01*
G36*
X65086393Y-119965573D02*
G01*
X65017208Y-119802868D01*
X64912919Y-119657875D01*
X64789116Y-119548108D01*
X64707737Y-119494723D01*
X64626409Y-119452742D01*
X64537961Y-119420692D01*
X64435220Y-119397102D01*
X64311015Y-119380500D01*
X64158171Y-119369415D01*
X63969519Y-119362376D01*
X63873185Y-119360178D01*
X63656031Y-119357477D01*
X63477943Y-119359317D01*
X63331965Y-119366443D01*
X63211137Y-119379599D01*
X63108501Y-119399530D01*
X63017100Y-119426980D01*
X62934422Y-119460663D01*
X62773810Y-119550681D01*
X62649771Y-119660573D01*
X62554429Y-119797694D01*
X62536558Y-119832173D01*
X62498241Y-119916381D01*
X62474259Y-119990553D01*
X62460481Y-120072580D01*
X62452775Y-120180357D01*
X62451941Y-120198634D01*
X62452150Y-120363085D01*
X62471451Y-120495583D01*
X62513665Y-120607760D01*
X62582618Y-120711249D01*
X62642449Y-120778194D01*
X62761580Y-120901191D01*
X62090967Y-120907305D01*
X61420355Y-120913419D01*
X61413847Y-121157063D01*
X61412607Y-121258944D01*
X61414362Y-121343156D01*
X61418727Y-121399340D01*
X61423468Y-121416835D01*
X61448554Y-121419367D01*
X61516299Y-121421776D01*
X61623179Y-121424033D01*
X61765672Y-121426105D01*
X61940254Y-121427963D01*
X62143403Y-121429575D01*
X62371595Y-121430910D01*
X62621308Y-121431937D01*
X62889018Y-121432626D01*
X63171202Y-121432945D01*
X63259930Y-121432964D01*
X63639668Y-121432964D01*
X63639668Y-120899281D01*
X63485797Y-120897855D01*
X63365427Y-120892088D01*
X63272240Y-120880892D01*
X63199923Y-120863180D01*
X63142159Y-120837867D01*
X63092633Y-120803865D01*
X63047100Y-120762164D01*
X62964930Y-120648406D01*
X62920887Y-120512424D01*
X62915964Y-120359450D01*
X62943812Y-120218177D01*
X62998978Y-120099415D01*
X63089559Y-120003108D01*
X63186809Y-119940464D01*
X63244348Y-119922799D01*
X63338846Y-119908282D01*
X63461176Y-119897076D01*
X63602212Y-119889348D01*
X63752826Y-119885261D01*
X63903892Y-119884980D01*
X64046283Y-119888670D01*
X64170873Y-119896496D01*
X64268535Y-119908622D01*
X64316938Y-119920069D01*
X64418136Y-119970502D01*
X64511467Y-120046595D01*
X64585308Y-120136435D01*
X64628036Y-120228110D01*
X64631215Y-120242188D01*
X64643228Y-120373039D01*
X64634230Y-120506918D01*
X64606420Y-120627624D01*
X64567629Y-120710845D01*
X64528774Y-120764754D01*
X64487990Y-120806746D01*
X64439043Y-120838405D01*
X64375699Y-120861315D01*
X64291724Y-120877061D01*
X64180885Y-120887226D01*
X64036948Y-120893395D01*
X63853679Y-120897153D01*
X63833355Y-120897451D01*
X63639668Y-120899281D01*
X63639668Y-121432964D01*
X65080264Y-121432964D01*
X65080264Y-120901873D01*
X64781297Y-120901873D01*
X64886442Y-120796729D01*
X65001057Y-120651772D01*
X65077808Y-120489090D01*
X65117246Y-120315772D01*
X65119923Y-120138903D01*
X65086393Y-119965573D01*
G37*
X65086393Y-119965573D02*
X65017208Y-119802868D01*
X64912919Y-119657875D01*
X64789116Y-119548108D01*
X64707737Y-119494723D01*
X64626409Y-119452742D01*
X64537961Y-119420692D01*
X64435220Y-119397102D01*
X64311015Y-119380500D01*
X64158171Y-119369415D01*
X63969519Y-119362376D01*
X63873185Y-119360178D01*
X63656031Y-119357477D01*
X63477943Y-119359317D01*
X63331965Y-119366443D01*
X63211137Y-119379599D01*
X63108501Y-119399530D01*
X63017100Y-119426980D01*
X62934422Y-119460663D01*
X62773810Y-119550681D01*
X62649771Y-119660573D01*
X62554429Y-119797694D01*
X62536558Y-119832173D01*
X62498241Y-119916381D01*
X62474259Y-119990553D01*
X62460481Y-120072580D01*
X62452775Y-120180357D01*
X62451941Y-120198634D01*
X62452150Y-120363085D01*
X62471451Y-120495583D01*
X62513665Y-120607760D01*
X62582618Y-120711249D01*
X62642449Y-120778194D01*
X62761580Y-120901191D01*
X62090967Y-120907305D01*
X61420355Y-120913419D01*
X61413847Y-121157063D01*
X61412607Y-121258944D01*
X61414362Y-121343156D01*
X61418727Y-121399340D01*
X61423468Y-121416835D01*
X61448554Y-121419367D01*
X61516299Y-121421776D01*
X61623179Y-121424033D01*
X61765672Y-121426105D01*
X61940254Y-121427963D01*
X62143403Y-121429575D01*
X62371595Y-121430910D01*
X62621308Y-121431937D01*
X62889018Y-121432626D01*
X63171202Y-121432945D01*
X63259930Y-121432964D01*
X63639668Y-121432964D01*
X63639668Y-120899281D01*
X63485797Y-120897855D01*
X63365427Y-120892088D01*
X63272240Y-120880892D01*
X63199923Y-120863180D01*
X63142159Y-120837867D01*
X63092633Y-120803865D01*
X63047100Y-120762164D01*
X62964930Y-120648406D01*
X62920887Y-120512424D01*
X62915964Y-120359450D01*
X62943812Y-120218177D01*
X62998978Y-120099415D01*
X63089559Y-120003108D01*
X63186809Y-119940464D01*
X63244348Y-119922799D01*
X63338846Y-119908282D01*
X63461176Y-119897076D01*
X63602212Y-119889348D01*
X63752826Y-119885261D01*
X63903892Y-119884980D01*
X64046283Y-119888670D01*
X64170873Y-119896496D01*
X64268535Y-119908622D01*
X64316938Y-119920069D01*
X64418136Y-119970502D01*
X64511467Y-120046595D01*
X64585308Y-120136435D01*
X64628036Y-120228110D01*
X64631215Y-120242188D01*
X64643228Y-120373039D01*
X64634230Y-120506918D01*
X64606420Y-120627624D01*
X64567629Y-120710845D01*
X64528774Y-120764754D01*
X64487990Y-120806746D01*
X64439043Y-120838405D01*
X64375699Y-120861315D01*
X64291724Y-120877061D01*
X64180885Y-120887226D01*
X64036948Y-120893395D01*
X63853679Y-120897153D01*
X63833355Y-120897451D01*
X63639668Y-120899281D01*
X63639668Y-121432964D01*
X65080264Y-121432964D01*
X65080264Y-120901873D01*
X64781297Y-120901873D01*
X64886442Y-120796729D01*
X65001057Y-120651772D01*
X65077808Y-120489090D01*
X65117246Y-120315772D01*
X65119923Y-120138903D01*
X65086393Y-119965573D01*
D11*
X70957800Y-116249100D02*
X70957800Y-115099100D01*
X78257800Y-116249100D02*
X70957800Y-116249100D01*
X78257800Y-110749100D02*
X70957800Y-110749100D01*
X70164100Y-144822300D02*
X70164100Y-143672300D01*
X77464100Y-144822300D02*
X70164100Y-144822300D01*
X77464100Y-139322300D02*
X70164100Y-139322300D01*
D12*
X149315400Y-133729000D02*
X149315400Y-136129000D01*
X149590400Y-136129000D02*
X149590400Y-133729000D01*
X149465400Y-136129000D02*
X149465400Y-133729000D01*
X149190400Y-136129000D02*
X155190400Y-136129000D01*
X155190400Y-136129000D02*
X155190400Y-133729000D01*
X155190400Y-133729000D02*
X149190400Y-133729000D01*
X149190400Y-133729000D02*
X149190400Y-136129000D01*
D13*
X63377100Y-56690100D02*
X68377100Y-56690100D01*
X68377100Y-56690100D02*
X68377100Y-54190100D01*
X68377100Y-54190100D02*
X63377100Y-54190100D01*
X63377100Y-54190100D02*
X63377100Y-56690100D01*
D12*
X98068600Y-59914900D02*
X98068600Y-62314900D01*
X98343600Y-62314900D02*
X98343600Y-59914900D01*
X98218600Y-62314900D02*
X98218600Y-59914900D01*
X97943600Y-62314900D02*
X103943600Y-62314900D01*
X103943600Y-62314900D02*
X103943600Y-59914900D01*
X103943600Y-59914900D02*
X97943600Y-59914900D01*
X97943600Y-59914900D02*
X97943600Y-62314900D01*
D11*
X107468000Y-129742000D02*
X107468000Y-128592000D01*
X114768000Y-129742000D02*
X107468000Y-129742000D01*
X114768000Y-124242000D02*
X107468000Y-124242000D01*
D12*
X156802400Y-59914900D02*
X156802400Y-62314900D01*
X157077400Y-62314900D02*
X157077400Y-59914900D01*
X156952400Y-62314900D02*
X156952400Y-59914900D01*
X156677400Y-62314900D02*
X162677400Y-62314900D01*
X162677400Y-62314900D02*
X162677400Y-59914900D01*
X162677400Y-59914900D02*
X156677400Y-59914900D01*
X156677400Y-59914900D02*
X156677400Y-62314900D01*
X136616200Y-141666000D02*
X136616200Y-144066000D01*
X136891200Y-144066000D02*
X136891200Y-141666000D01*
X136766200Y-144066000D02*
X136766200Y-141666000D01*
X136491200Y-144066000D02*
X142491200Y-144066000D01*
X142491200Y-144066000D02*
X142491200Y-141666000D01*
X142491200Y-141666000D02*
X136491200Y-141666000D01*
X136491200Y-141666000D02*
X136491200Y-144066000D01*
X108043000Y-141666000D02*
X108043000Y-144066000D01*
X108318000Y-144066000D02*
X108318000Y-141666000D01*
X108193000Y-144066000D02*
X108193000Y-141666000D01*
X107918000Y-144066000D02*
X113918000Y-144066000D01*
X113918000Y-144066000D02*
X113918000Y-141666000D01*
X113918000Y-141666000D02*
X107918000Y-141666000D01*
X107918000Y-141666000D02*
X107918000Y-144066000D01*
X136616200Y-122617200D02*
X136616200Y-125017200D01*
X136891200Y-125017200D02*
X136891200Y-122617200D01*
X136766200Y-125017200D02*
X136766200Y-122617200D01*
X136491200Y-125017200D02*
X142491200Y-125017200D01*
X142491200Y-125017200D02*
X142491200Y-122617200D01*
X142491200Y-122617200D02*
X136491200Y-122617200D01*
X136491200Y-122617200D02*
X136491200Y-125017200D01*
X117567400Y-122617200D02*
X117567400Y-125017200D01*
X117842400Y-125017200D02*
X117842400Y-122617200D01*
X117717400Y-125017200D02*
X117717400Y-122617200D01*
X117442400Y-125017200D02*
X123442400Y-125017200D01*
X123442400Y-125017200D02*
X123442400Y-122617200D01*
X123442400Y-122617200D02*
X117442400Y-122617200D01*
X117442400Y-122617200D02*
X117442400Y-125017200D01*
X98518600Y-122617200D02*
X98518600Y-125017200D01*
X98793600Y-125017200D02*
X98793600Y-122617200D01*
X98668600Y-125017200D02*
X98668600Y-122617200D01*
X98393600Y-125017200D02*
X104393600Y-125017200D01*
X104393600Y-125017200D02*
X104393600Y-122617200D01*
X104393600Y-122617200D02*
X98393600Y-122617200D01*
X98393600Y-122617200D02*
X98393600Y-125017200D01*
X155665000Y-103568400D02*
X155665000Y-105968400D01*
X155940000Y-105968400D02*
X155940000Y-103568400D01*
X155815000Y-105968400D02*
X155815000Y-103568400D01*
X155540000Y-105968400D02*
X161540000Y-105968400D01*
X161540000Y-105968400D02*
X161540000Y-103568400D01*
X161540000Y-103568400D02*
X155540000Y-103568400D01*
X155540000Y-103568400D02*
X155540000Y-105968400D01*
X136616200Y-103568400D02*
X136616200Y-105968400D01*
X136891200Y-105968400D02*
X136891200Y-103568400D01*
X136766200Y-105968400D02*
X136766200Y-103568400D01*
X136491200Y-105968400D02*
X142491200Y-105968400D01*
X142491200Y-105968400D02*
X142491200Y-103568400D01*
X142491200Y-103568400D02*
X136491200Y-103568400D01*
X136491200Y-103568400D02*
X136491200Y-105968400D01*
X117567400Y-103568400D02*
X117567400Y-105968400D01*
X117842400Y-105968400D02*
X117842400Y-103568400D01*
X117717400Y-105968400D02*
X117717400Y-103568400D01*
X117442400Y-105968400D02*
X123442400Y-105968400D01*
X123442400Y-105968400D02*
X123442400Y-103568400D01*
X123442400Y-103568400D02*
X117442400Y-103568400D01*
X117442400Y-103568400D02*
X117442400Y-105968400D01*
X98518600Y-103568400D02*
X98518600Y-105968400D01*
X98793600Y-105968400D02*
X98793600Y-103568400D01*
X98668600Y-105968400D02*
X98668600Y-103568400D01*
X98393600Y-105968400D02*
X104393600Y-105968400D01*
X104393600Y-105968400D02*
X104393600Y-103568400D01*
X104393600Y-103568400D02*
X98393600Y-103568400D01*
X98393600Y-103568400D02*
X98393600Y-105968400D01*
X155665000Y-84519600D02*
X155665000Y-86919600D01*
X155940000Y-86919600D02*
X155940000Y-84519600D01*
X155815000Y-86919600D02*
X155815000Y-84519600D01*
X155540000Y-86919600D02*
X161540000Y-86919600D01*
X161540000Y-86919600D02*
X161540000Y-84519600D01*
X161540000Y-84519600D02*
X155540000Y-84519600D01*
X155540000Y-84519600D02*
X155540000Y-86919600D01*
X136616200Y-84519600D02*
X136616200Y-86919600D01*
X136891200Y-86919600D02*
X136891200Y-84519600D01*
X136766200Y-86919600D02*
X136766200Y-84519600D01*
X136491200Y-86919600D02*
X142491200Y-86919600D01*
X142491200Y-86919600D02*
X142491200Y-84519600D01*
X142491200Y-84519600D02*
X136491200Y-84519600D01*
X136491200Y-84519600D02*
X136491200Y-86919600D01*
X117567400Y-84519600D02*
X117567400Y-86919600D01*
X117842400Y-86919600D02*
X117842400Y-84519600D01*
X117717400Y-86919600D02*
X117717400Y-84519600D01*
X117442400Y-86919600D02*
X123442400Y-86919600D01*
X123442400Y-86919600D02*
X123442400Y-84519600D01*
X123442400Y-84519600D02*
X117442400Y-84519600D01*
X117442400Y-84519600D02*
X117442400Y-86919600D01*
X98518600Y-84519600D02*
X98518600Y-86919600D01*
X98793600Y-86919600D02*
X98793600Y-84519600D01*
X98668600Y-86919600D02*
X98668600Y-84519600D01*
X98393600Y-86919600D02*
X104393600Y-86919600D01*
X104393600Y-86919600D02*
X104393600Y-84519600D01*
X104393600Y-84519600D02*
X98393600Y-84519600D01*
X98393600Y-84519600D02*
X98393600Y-86919600D01*
X136616200Y-65470800D02*
X136616200Y-67870800D01*
X136891200Y-67870800D02*
X136891200Y-65470800D01*
X136766200Y-67870800D02*
X136766200Y-65470800D01*
X136491200Y-67870800D02*
X142491200Y-67870800D01*
X142491200Y-67870800D02*
X142491200Y-65470800D01*
X142491200Y-65470800D02*
X136491200Y-65470800D01*
X136491200Y-65470800D02*
X136491200Y-67870800D01*
X117567400Y-65470800D02*
X117567400Y-67870800D01*
X117842400Y-67870800D02*
X117842400Y-65470800D01*
X117717400Y-67870800D02*
X117717400Y-65470800D01*
X117442400Y-67870800D02*
X123442400Y-67870800D01*
X123442400Y-67870800D02*
X123442400Y-65470800D01*
X123442400Y-65470800D02*
X117442400Y-65470800D01*
X117442400Y-65470800D02*
X117442400Y-67870800D01*
D11*
X114768000Y-67889300D02*
X107468000Y-67889300D01*
X114768000Y-73389300D02*
X107468000Y-73389300D01*
X107468000Y-73389300D02*
X107468000Y-72239300D01*
X152865600Y-67889300D02*
X145565600Y-67889300D01*
X152865600Y-73389300D02*
X145565600Y-73389300D01*
X145565600Y-73389300D02*
X145565600Y-72239300D01*
X133816800Y-86938100D02*
X133816800Y-88088100D01*
X126516800Y-86938100D02*
X133816800Y-86938100D01*
X126516800Y-92438100D02*
X133816800Y-92438100D01*
X133816800Y-105986900D02*
X126516800Y-105986900D01*
X133816800Y-111486900D02*
X126516800Y-111486900D01*
X126516800Y-111486900D02*
X126516800Y-110336900D01*
X143978200Y-129742000D02*
X143978200Y-128592000D01*
X151278200Y-129742000D02*
X143978200Y-129742000D01*
X151278200Y-124242000D02*
X143978200Y-124242000D01*
X65615848Y-86993850D02*
X66138352Y-86993850D01*
X65615848Y-88413850D02*
X66138352Y-88413850D01*
X68177100Y-93147150D02*
X68627100Y-93597150D01*
X68177100Y-96547150D02*
X68627100Y-96097150D01*
X63577100Y-96547150D02*
X63127100Y-96097150D01*
X63577100Y-93147150D02*
X63127100Y-93597150D01*
X64877100Y-97597150D02*
X66877100Y-97597150D01*
X68627100Y-93597150D02*
X68627100Y-96097150D01*
X64877100Y-92097150D02*
X66877100Y-92097150D01*
X63127100Y-93597150D02*
X63127100Y-96097150D01*
D14*
X132404533Y-117396180D02*
X131785485Y-117396180D01*
X132118819Y-117777133D01*
X131975961Y-117777133D01*
X131880723Y-117824752D01*
X131833104Y-117872371D01*
X131785485Y-117967609D01*
X131785485Y-118205704D01*
X131833104Y-118300942D01*
X131880723Y-118348561D01*
X131975961Y-118396180D01*
X132261676Y-118396180D01*
X132356914Y-118348561D01*
X132404533Y-118300942D01*
X113308114Y-117491419D02*
X113260495Y-117443800D01*
X113165257Y-117396180D01*
X112927161Y-117396180D01*
X112831923Y-117443800D01*
X112784304Y-117491419D01*
X112736685Y-117586657D01*
X112736685Y-117681895D01*
X112784304Y-117824752D01*
X113355733Y-118396180D01*
X112736685Y-118396180D01*
X75822085Y-110451480D02*
X75822085Y-109451480D01*
X75583990Y-109451480D01*
X75441133Y-109499100D01*
X75345895Y-109594338D01*
X75298276Y-109689576D01*
X75250657Y-109880052D01*
X75250657Y-110022909D01*
X75298276Y-110213385D01*
X75345895Y-110308623D01*
X75441133Y-110403861D01*
X75583990Y-110451480D01*
X75822085Y-110451480D01*
X74869704Y-109546719D02*
X74822085Y-109499100D01*
X74726847Y-109451480D01*
X74488752Y-109451480D01*
X74393514Y-109499100D01*
X74345895Y-109546719D01*
X74298276Y-109641957D01*
X74298276Y-109737195D01*
X74345895Y-109880052D01*
X74917323Y-110451480D01*
X74298276Y-110451480D01*
X73441133Y-109451480D02*
X73631609Y-109451480D01*
X73726847Y-109499100D01*
X73774466Y-109546719D01*
X73869704Y-109689576D01*
X73917323Y-109880052D01*
X73917323Y-110261004D01*
X73869704Y-110356242D01*
X73822085Y-110403861D01*
X73726847Y-110451480D01*
X73536371Y-110451480D01*
X73441133Y-110403861D01*
X73393514Y-110356242D01*
X73345895Y-110261004D01*
X73345895Y-110022909D01*
X73393514Y-109927671D01*
X73441133Y-109880052D01*
X73536371Y-109832433D01*
X73726847Y-109832433D01*
X73822085Y-109880052D01*
X73869704Y-109927671D01*
X73917323Y-110022909D01*
X78472085Y-112351480D02*
X79043514Y-112351480D01*
X78757800Y-112351480D02*
X78757800Y-111351480D01*
X78853038Y-111494338D01*
X78948276Y-111589576D01*
X79043514Y-111637195D01*
X75028385Y-139024680D02*
X75028385Y-138024680D01*
X74790290Y-138024680D01*
X74647433Y-138072300D01*
X74552195Y-138167538D01*
X74504576Y-138262776D01*
X74456957Y-138453252D01*
X74456957Y-138596109D01*
X74504576Y-138786585D01*
X74552195Y-138881823D01*
X74647433Y-138977061D01*
X74790290Y-139024680D01*
X75028385Y-139024680D01*
X74076004Y-138119919D02*
X74028385Y-138072300D01*
X73933147Y-138024680D01*
X73695052Y-138024680D01*
X73599814Y-138072300D01*
X73552195Y-138119919D01*
X73504576Y-138215157D01*
X73504576Y-138310395D01*
X73552195Y-138453252D01*
X74123623Y-139024680D01*
X73504576Y-139024680D01*
X72599814Y-138024680D02*
X73076004Y-138024680D01*
X73123623Y-138500871D01*
X73076004Y-138453252D01*
X72980766Y-138405633D01*
X72742671Y-138405633D01*
X72647433Y-138453252D01*
X72599814Y-138500871D01*
X72552195Y-138596109D01*
X72552195Y-138834204D01*
X72599814Y-138929442D01*
X72647433Y-138977061D01*
X72742671Y-139024680D01*
X72980766Y-139024680D01*
X73076004Y-138977061D01*
X73123623Y-138929442D01*
X77678385Y-140924680D02*
X78249814Y-140924680D01*
X77964100Y-140924680D02*
X77964100Y-139924680D01*
X78059338Y-140067538D01*
X78154576Y-140162776D01*
X78249814Y-140210395D01*
X151500952Y-79917628D02*
X150739047Y-79917628D01*
X153361828Y-133365904D02*
X153361828Y-132565904D01*
X153171352Y-132565904D01*
X153057066Y-132604000D01*
X152980876Y-132680190D01*
X152942780Y-132756380D01*
X152904685Y-132908761D01*
X152904685Y-133023047D01*
X152942780Y-133175428D01*
X152980876Y-133251619D01*
X153057066Y-133327809D01*
X153171352Y-133365904D01*
X153361828Y-133365904D01*
X152142780Y-133365904D02*
X152599923Y-133365904D01*
X152371352Y-133365904D02*
X152371352Y-132565904D01*
X152447542Y-132680190D01*
X152523733Y-132756380D01*
X152599923Y-132794476D01*
X151457066Y-132565904D02*
X151609447Y-132565904D01*
X151685638Y-132604000D01*
X151723733Y-132642095D01*
X151799923Y-132756380D01*
X151838019Y-132908761D01*
X151838019Y-133213523D01*
X151799923Y-133289714D01*
X151761828Y-133327809D01*
X151685638Y-133365904D01*
X151533257Y-133365904D01*
X151457066Y-133327809D01*
X151418971Y-133289714D01*
X151380876Y-133213523D01*
X151380876Y-133023047D01*
X151418971Y-132946857D01*
X151457066Y-132908761D01*
X151533257Y-132870666D01*
X151685638Y-132870666D01*
X151761828Y-132908761D01*
X151799923Y-132946857D01*
X151838019Y-133023047D01*
X70889004Y-54940100D02*
X70984242Y-54892480D01*
X71127100Y-54892480D01*
X71269957Y-54940100D01*
X71365195Y-55035338D01*
X71412814Y-55130576D01*
X71460433Y-55321052D01*
X71460433Y-55463909D01*
X71412814Y-55654385D01*
X71365195Y-55749623D01*
X71269957Y-55844861D01*
X71127100Y-55892480D01*
X71031861Y-55892480D01*
X70889004Y-55844861D01*
X70841385Y-55797242D01*
X70841385Y-55463909D01*
X71031861Y-55463909D01*
X70412814Y-55892480D02*
X70412814Y-54892480D01*
X69841385Y-55892480D01*
X69841385Y-54892480D01*
X69365195Y-55892480D02*
X69365195Y-54892480D01*
X69127100Y-54892480D01*
X68984242Y-54940100D01*
X68889004Y-55035338D01*
X68841385Y-55130576D01*
X68793766Y-55321052D01*
X68793766Y-55463909D01*
X68841385Y-55654385D01*
X68889004Y-55749623D01*
X68984242Y-55844861D01*
X69127100Y-55892480D01*
X69365195Y-55892480D01*
X62174719Y-55892480D02*
X62508052Y-55416290D01*
X62746147Y-55892480D02*
X62746147Y-54892480D01*
X62365195Y-54892480D01*
X62269957Y-54940100D01*
X62222338Y-54987719D01*
X62174719Y-55082957D01*
X62174719Y-55225814D01*
X62222338Y-55321052D01*
X62269957Y-55368671D01*
X62365195Y-55416290D01*
X62746147Y-55416290D01*
X61793766Y-55844861D02*
X61650909Y-55892480D01*
X61412814Y-55892480D01*
X61317576Y-55844861D01*
X61269957Y-55797242D01*
X61222338Y-55702004D01*
X61222338Y-55606766D01*
X61269957Y-55511528D01*
X61317576Y-55463909D01*
X61412814Y-55416290D01*
X61603290Y-55368671D01*
X61698528Y-55321052D01*
X61746147Y-55273433D01*
X61793766Y-55178195D01*
X61793766Y-55082957D01*
X61746147Y-54987719D01*
X61698528Y-54940100D01*
X61603290Y-54892480D01*
X61365195Y-54892480D01*
X61222338Y-54940100D01*
X60936623Y-54892480D02*
X60365195Y-54892480D01*
X60650909Y-55892480D02*
X60650909Y-54892480D01*
X71698528Y-58392480D02*
X71698528Y-57392480D01*
X71365195Y-58106766D01*
X71031861Y-57392480D01*
X71031861Y-58392480D01*
X70365195Y-57392480D02*
X70174719Y-57392480D01*
X70079480Y-57440100D01*
X69984242Y-57535338D01*
X69936623Y-57725814D01*
X69936623Y-58059147D01*
X69984242Y-58249623D01*
X70079480Y-58344861D01*
X70174719Y-58392480D01*
X70365195Y-58392480D01*
X70460433Y-58344861D01*
X70555671Y-58249623D01*
X70603290Y-58059147D01*
X70603290Y-57725814D01*
X70555671Y-57535338D01*
X70460433Y-57440100D01*
X70365195Y-57392480D01*
X69555671Y-58344861D02*
X69412814Y-58392480D01*
X69174719Y-58392480D01*
X69079480Y-58344861D01*
X69031861Y-58297242D01*
X68984242Y-58202004D01*
X68984242Y-58106766D01*
X69031861Y-58011528D01*
X69079480Y-57963909D01*
X69174719Y-57916290D01*
X69365195Y-57868671D01*
X69460433Y-57821052D01*
X69508052Y-57773433D01*
X69555671Y-57678195D01*
X69555671Y-57582957D01*
X69508052Y-57487719D01*
X69460433Y-57440100D01*
X69365195Y-57392480D01*
X69127100Y-57392480D01*
X68984242Y-57440100D01*
X68555671Y-58392480D02*
X68555671Y-57392480D01*
X63162814Y-58344861D02*
X63019957Y-58392480D01*
X62781861Y-58392480D01*
X62686623Y-58344861D01*
X62639004Y-58297242D01*
X62591385Y-58202004D01*
X62591385Y-58106766D01*
X62639004Y-58011528D01*
X62686623Y-57963909D01*
X62781861Y-57916290D01*
X62972338Y-57868671D01*
X63067576Y-57821052D01*
X63115195Y-57773433D01*
X63162814Y-57678195D01*
X63162814Y-57582957D01*
X63115195Y-57487719D01*
X63067576Y-57440100D01*
X62972338Y-57392480D01*
X62734242Y-57392480D01*
X62591385Y-57440100D01*
X61591385Y-58297242D02*
X61639004Y-58344861D01*
X61781861Y-58392480D01*
X61877100Y-58392480D01*
X62019957Y-58344861D01*
X62115195Y-58249623D01*
X62162814Y-58154385D01*
X62210433Y-57963909D01*
X62210433Y-57821052D01*
X62162814Y-57630576D01*
X62115195Y-57535338D01*
X62019957Y-57440100D01*
X61877100Y-57392480D01*
X61781861Y-57392480D01*
X61639004Y-57440100D01*
X61591385Y-57487719D01*
X61162814Y-58392480D02*
X61162814Y-57392480D01*
X60591385Y-58392480D02*
X61019957Y-57821052D01*
X60591385Y-57392480D02*
X61162814Y-57963909D01*
X71210433Y-59892480D02*
X70877100Y-60892480D01*
X70543766Y-59892480D01*
X69639004Y-60797242D02*
X69686623Y-60844861D01*
X69829480Y-60892480D01*
X69924719Y-60892480D01*
X70067576Y-60844861D01*
X70162814Y-60749623D01*
X70210433Y-60654385D01*
X70258052Y-60463909D01*
X70258052Y-60321052D01*
X70210433Y-60130576D01*
X70162814Y-60035338D01*
X70067576Y-59940100D01*
X69924719Y-59892480D01*
X69829480Y-59892480D01*
X69686623Y-59940100D01*
X69639004Y-59987719D01*
X68639004Y-60797242D02*
X68686623Y-60844861D01*
X68829480Y-60892480D01*
X68924719Y-60892480D01*
X69067576Y-60844861D01*
X69162814Y-60749623D01*
X69210433Y-60654385D01*
X69258052Y-60463909D01*
X69258052Y-60321052D01*
X69210433Y-60130576D01*
X69162814Y-60035338D01*
X69067576Y-59940100D01*
X68924719Y-59892480D01*
X68829480Y-59892480D01*
X68686623Y-59940100D01*
X68639004Y-59987719D01*
X63198528Y-60892480D02*
X63198528Y-59892480D01*
X62865195Y-60606766D01*
X62531861Y-59892480D01*
X62531861Y-60892480D01*
X62055671Y-60892480D02*
X62055671Y-59892480D01*
X61627100Y-60844861D02*
X61484242Y-60892480D01*
X61246147Y-60892480D01*
X61150909Y-60844861D01*
X61103290Y-60797242D01*
X61055671Y-60702004D01*
X61055671Y-60606766D01*
X61103290Y-60511528D01*
X61150909Y-60463909D01*
X61246147Y-60416290D01*
X61436623Y-60368671D01*
X61531861Y-60321052D01*
X61579480Y-60273433D01*
X61627100Y-60178195D01*
X61627100Y-60082957D01*
X61579480Y-59987719D01*
X61531861Y-59940100D01*
X61436623Y-59892480D01*
X61198528Y-59892480D01*
X61055671Y-59940100D01*
X60436623Y-59892480D02*
X60246147Y-59892480D01*
X60150909Y-59940100D01*
X60055671Y-60035338D01*
X60008052Y-60225814D01*
X60008052Y-60559147D01*
X60055671Y-60749623D01*
X60150909Y-60844861D01*
X60246147Y-60892480D01*
X60436623Y-60892480D01*
X60531861Y-60844861D01*
X60627100Y-60749623D01*
X60674719Y-60559147D01*
X60674719Y-60225814D01*
X60627100Y-60035338D01*
X60531861Y-59940100D01*
X60436623Y-59892480D01*
X66853290Y-53312480D02*
X66853290Y-52312480D01*
X66424719Y-53264861D02*
X66281861Y-53312480D01*
X66043766Y-53312480D01*
X65948528Y-53264861D01*
X65900909Y-53217242D01*
X65853290Y-53122004D01*
X65853290Y-53026766D01*
X65900909Y-52931528D01*
X65948528Y-52883909D01*
X66043766Y-52836290D01*
X66234242Y-52788671D01*
X66329480Y-52741052D01*
X66377100Y-52693433D01*
X66424719Y-52598195D01*
X66424719Y-52502957D01*
X66377100Y-52407719D01*
X66329480Y-52360100D01*
X66234242Y-52312480D01*
X65996147Y-52312480D01*
X65853290Y-52360100D01*
X65424719Y-53312480D02*
X65424719Y-52312480D01*
X65043766Y-52312480D01*
X64948528Y-52360100D01*
X64900909Y-52407719D01*
X64853290Y-52502957D01*
X64853290Y-52645814D01*
X64900909Y-52741052D01*
X64948528Y-52788671D01*
X65043766Y-52836290D01*
X65424719Y-52836290D01*
X132071200Y-60249780D02*
X132071200Y-60487876D01*
X132309295Y-60392638D02*
X132071200Y-60487876D01*
X131833104Y-60392638D01*
X132214057Y-60678352D02*
X132071200Y-60487876D01*
X131928342Y-60678352D01*
X112593828Y-60202161D02*
X113450971Y-61487876D01*
X113117638Y-79727152D02*
X113212876Y-79679533D01*
X113260495Y-79631914D01*
X113308114Y-79536676D01*
X113308114Y-79489057D01*
X113260495Y-79393819D01*
X113212876Y-79346200D01*
X113117638Y-79298580D01*
X112927161Y-79298580D01*
X112831923Y-79346200D01*
X112784304Y-79393819D01*
X112736685Y-79489057D01*
X112736685Y-79536676D01*
X112784304Y-79631914D01*
X112831923Y-79679533D01*
X112927161Y-79727152D01*
X113117638Y-79727152D01*
X113212876Y-79774771D01*
X113260495Y-79822390D01*
X113308114Y-79917628D01*
X113308114Y-80108104D01*
X113260495Y-80203342D01*
X113212876Y-80250961D01*
X113117638Y-80298580D01*
X112927161Y-80298580D01*
X112831923Y-80250961D01*
X112784304Y-80203342D01*
X112736685Y-80108104D01*
X112736685Y-79917628D01*
X112784304Y-79822390D01*
X112831923Y-79774771D01*
X112927161Y-79727152D01*
X112784304Y-98347380D02*
X113260495Y-98347380D01*
X113308114Y-98823571D01*
X113260495Y-98775952D01*
X113165257Y-98728333D01*
X112927161Y-98728333D01*
X112831923Y-98775952D01*
X112784304Y-98823571D01*
X112736685Y-98918809D01*
X112736685Y-99156904D01*
X112784304Y-99252142D01*
X112831923Y-99299761D01*
X112927161Y-99347380D01*
X113165257Y-99347380D01*
X113260495Y-99299761D01*
X113308114Y-99252142D01*
X94306933Y-79298580D02*
X93640266Y-79298580D01*
X94068838Y-80298580D01*
X132261676Y-80298580D02*
X132071200Y-80298580D01*
X131975961Y-80250961D01*
X131928342Y-80203342D01*
X131833104Y-80060485D01*
X131785485Y-79870009D01*
X131785485Y-79489057D01*
X131833104Y-79393819D01*
X131880723Y-79346200D01*
X131975961Y-79298580D01*
X132166438Y-79298580D01*
X132261676Y-79346200D01*
X132309295Y-79393819D01*
X132356914Y-79489057D01*
X132356914Y-79727152D01*
X132309295Y-79822390D01*
X132261676Y-79870009D01*
X132166438Y-79917628D01*
X131975961Y-79917628D01*
X131880723Y-79870009D01*
X131833104Y-79822390D01*
X131785485Y-79727152D01*
X93783123Y-98680714D02*
X93783123Y-99347380D01*
X94021219Y-98299761D02*
X94259314Y-99014047D01*
X93640266Y-99014047D01*
X131880723Y-98347380D02*
X132071200Y-98347380D01*
X132166438Y-98395000D01*
X132214057Y-98442619D01*
X132309295Y-98585476D01*
X132356914Y-98775952D01*
X132356914Y-99156904D01*
X132309295Y-99252142D01*
X132261676Y-99299761D01*
X132166438Y-99347380D01*
X131975961Y-99347380D01*
X131880723Y-99299761D01*
X131833104Y-99252142D01*
X131785485Y-99156904D01*
X131785485Y-98918809D01*
X131833104Y-98823571D01*
X131880723Y-98775952D01*
X131975961Y-98728333D01*
X132166438Y-98728333D01*
X132261676Y-98775952D01*
X132309295Y-98823571D01*
X132356914Y-98918809D01*
X102275619Y-136444980D02*
X102180380Y-136444980D01*
X102085142Y-136492600D01*
X102037523Y-136540219D01*
X101989904Y-136635457D01*
X101942285Y-136825933D01*
X101942285Y-137064028D01*
X101989904Y-137254504D01*
X102037523Y-137349742D01*
X102085142Y-137397361D01*
X102180380Y-137444980D01*
X102275619Y-137444980D01*
X102370857Y-137397361D01*
X102418476Y-137349742D01*
X102466095Y-137254504D01*
X102513714Y-137064028D01*
X102513714Y-136825933D01*
X102466095Y-136635457D01*
X102418476Y-136540219D01*
X102370857Y-136492600D01*
X102275619Y-136444980D01*
X158351071Y-134604271D02*
X158351071Y-134937604D01*
X158874880Y-135080461D02*
X158874880Y-134604271D01*
X157874880Y-134604271D01*
X157874880Y-135080461D01*
X158874880Y-135509033D02*
X157874880Y-135509033D01*
X158874880Y-136080461D01*
X157874880Y-136080461D01*
X157874880Y-136413795D02*
X157874880Y-136985223D01*
X158874880Y-136699509D02*
X157874880Y-136699509D01*
X158351071Y-137318557D02*
X158351071Y-137651890D01*
X158874880Y-137794747D02*
X158874880Y-137318557D01*
X157874880Y-137318557D01*
X157874880Y-137794747D01*
X158874880Y-138794747D02*
X158398690Y-138461414D01*
X158874880Y-138223319D02*
X157874880Y-138223319D01*
X157874880Y-138604271D01*
X157922500Y-138699509D01*
X157970119Y-138747128D01*
X158065357Y-138794747D01*
X158208214Y-138794747D01*
X158303452Y-138747128D01*
X158351071Y-138699509D01*
X158398690Y-138604271D01*
X158398690Y-138223319D01*
X151500952Y-98966428D02*
X150739047Y-98966428D01*
X151120000Y-99347380D02*
X151120000Y-98585476D01*
X93687885Y-118396180D02*
X94259314Y-118396180D01*
X93973600Y-118396180D02*
X93973600Y-117396180D01*
X94068838Y-117539038D01*
X94164076Y-117634276D01*
X94259314Y-117681895D01*
X132023580Y-137397361D02*
X132023580Y-137444980D01*
X132071200Y-137540219D01*
X132118819Y-137587838D01*
X101734076Y-59551804D02*
X101734076Y-58751804D01*
X101543600Y-58751804D01*
X101429314Y-58789900D01*
X101353123Y-58866090D01*
X101315028Y-58942280D01*
X101276933Y-59094661D01*
X101276933Y-59208947D01*
X101315028Y-59361328D01*
X101353123Y-59437519D01*
X101429314Y-59513709D01*
X101543600Y-59551804D01*
X101734076Y-59551804D01*
X100515028Y-59551804D02*
X100972171Y-59551804D01*
X100743600Y-59551804D02*
X100743600Y-58751804D01*
X100819790Y-58866090D01*
X100895980Y-58942280D01*
X100972171Y-58980376D01*
X112332285Y-123944380D02*
X112332285Y-122944380D01*
X112094190Y-122944380D01*
X111951333Y-122992000D01*
X111856095Y-123087238D01*
X111808476Y-123182476D01*
X111760857Y-123372952D01*
X111760857Y-123515809D01*
X111808476Y-123706285D01*
X111856095Y-123801523D01*
X111951333Y-123896761D01*
X112094190Y-123944380D01*
X112332285Y-123944380D01*
X111379904Y-123039619D02*
X111332285Y-122992000D01*
X111237047Y-122944380D01*
X110998952Y-122944380D01*
X110903714Y-122992000D01*
X110856095Y-123039619D01*
X110808476Y-123134857D01*
X110808476Y-123230095D01*
X110856095Y-123372952D01*
X111427523Y-123944380D01*
X110808476Y-123944380D01*
X109951333Y-123277714D02*
X109951333Y-123944380D01*
X110189428Y-122896761D02*
X110427523Y-123611047D01*
X109808476Y-123611047D01*
X114982285Y-125844380D02*
X115553714Y-125844380D01*
X115268000Y-125844380D02*
X115268000Y-124844380D01*
X115363238Y-124987238D01*
X115458476Y-125082476D01*
X115553714Y-125130095D01*
X160467876Y-59551804D02*
X160467876Y-58751804D01*
X160277400Y-58751804D01*
X160163114Y-58789900D01*
X160086923Y-58866090D01*
X160048828Y-58942280D01*
X160010733Y-59094661D01*
X160010733Y-59208947D01*
X160048828Y-59361328D01*
X160086923Y-59437519D01*
X160163114Y-59513709D01*
X160277400Y-59551804D01*
X160467876Y-59551804D01*
X159553590Y-59094661D02*
X159629780Y-59056566D01*
X159667876Y-59018471D01*
X159705971Y-58942280D01*
X159705971Y-58904185D01*
X159667876Y-58827995D01*
X159629780Y-58789900D01*
X159553590Y-58751804D01*
X159401209Y-58751804D01*
X159325019Y-58789900D01*
X159286923Y-58827995D01*
X159248828Y-58904185D01*
X159248828Y-58942280D01*
X159286923Y-59018471D01*
X159325019Y-59056566D01*
X159401209Y-59094661D01*
X159553590Y-59094661D01*
X159629780Y-59132757D01*
X159667876Y-59170852D01*
X159705971Y-59247042D01*
X159705971Y-59399423D01*
X159667876Y-59475614D01*
X159629780Y-59513709D01*
X159553590Y-59551804D01*
X159401209Y-59551804D01*
X159325019Y-59513709D01*
X159286923Y-59475614D01*
X159248828Y-59399423D01*
X159248828Y-59247042D01*
X159286923Y-59170852D01*
X159325019Y-59132757D01*
X159401209Y-59094661D01*
X140662628Y-141302904D02*
X140662628Y-140502904D01*
X140472152Y-140502904D01*
X140357866Y-140541000D01*
X140281676Y-140617190D01*
X140243580Y-140693380D01*
X140205485Y-140845761D01*
X140205485Y-140960047D01*
X140243580Y-141112428D01*
X140281676Y-141188619D01*
X140357866Y-141264809D01*
X140472152Y-141302904D01*
X140662628Y-141302904D01*
X139443580Y-141302904D02*
X139900723Y-141302904D01*
X139672152Y-141302904D02*
X139672152Y-140502904D01*
X139748342Y-140617190D01*
X139824533Y-140693380D01*
X139900723Y-140731476D01*
X138986438Y-140845761D02*
X139062628Y-140807666D01*
X139100723Y-140769571D01*
X139138819Y-140693380D01*
X139138819Y-140655285D01*
X139100723Y-140579095D01*
X139062628Y-140541000D01*
X138986438Y-140502904D01*
X138834057Y-140502904D01*
X138757866Y-140541000D01*
X138719771Y-140579095D01*
X138681676Y-140655285D01*
X138681676Y-140693380D01*
X138719771Y-140769571D01*
X138757866Y-140807666D01*
X138834057Y-140845761D01*
X138986438Y-140845761D01*
X139062628Y-140883857D01*
X139100723Y-140921952D01*
X139138819Y-140998142D01*
X139138819Y-141150523D01*
X139100723Y-141226714D01*
X139062628Y-141264809D01*
X138986438Y-141302904D01*
X138834057Y-141302904D01*
X138757866Y-141264809D01*
X138719771Y-141226714D01*
X138681676Y-141150523D01*
X138681676Y-140998142D01*
X138719771Y-140921952D01*
X138757866Y-140883857D01*
X138834057Y-140845761D01*
X112089428Y-141302904D02*
X112089428Y-140502904D01*
X111898952Y-140502904D01*
X111784666Y-140541000D01*
X111708476Y-140617190D01*
X111670380Y-140693380D01*
X111632285Y-140845761D01*
X111632285Y-140960047D01*
X111670380Y-141112428D01*
X111708476Y-141188619D01*
X111784666Y-141264809D01*
X111898952Y-141302904D01*
X112089428Y-141302904D01*
X110870380Y-141302904D02*
X111327523Y-141302904D01*
X111098952Y-141302904D02*
X111098952Y-140502904D01*
X111175142Y-140617190D01*
X111251333Y-140693380D01*
X111327523Y-140731476D01*
X110603714Y-140502904D02*
X110070380Y-140502904D01*
X110413238Y-141302904D01*
X140662628Y-122254104D02*
X140662628Y-121454104D01*
X140472152Y-121454104D01*
X140357866Y-121492200D01*
X140281676Y-121568390D01*
X140243580Y-121644580D01*
X140205485Y-121796961D01*
X140205485Y-121911247D01*
X140243580Y-122063628D01*
X140281676Y-122139819D01*
X140357866Y-122216009D01*
X140472152Y-122254104D01*
X140662628Y-122254104D01*
X139443580Y-122254104D02*
X139900723Y-122254104D01*
X139672152Y-122254104D02*
X139672152Y-121454104D01*
X139748342Y-121568390D01*
X139824533Y-121644580D01*
X139900723Y-121682676D01*
X138719771Y-121454104D02*
X139100723Y-121454104D01*
X139138819Y-121835057D01*
X139100723Y-121796961D01*
X139024533Y-121758866D01*
X138834057Y-121758866D01*
X138757866Y-121796961D01*
X138719771Y-121835057D01*
X138681676Y-121911247D01*
X138681676Y-122101723D01*
X138719771Y-122177914D01*
X138757866Y-122216009D01*
X138834057Y-122254104D01*
X139024533Y-122254104D01*
X139100723Y-122216009D01*
X139138819Y-122177914D01*
X121613828Y-122254104D02*
X121613828Y-121454104D01*
X121423352Y-121454104D01*
X121309066Y-121492200D01*
X121232876Y-121568390D01*
X121194780Y-121644580D01*
X121156685Y-121796961D01*
X121156685Y-121911247D01*
X121194780Y-122063628D01*
X121232876Y-122139819D01*
X121309066Y-122216009D01*
X121423352Y-122254104D01*
X121613828Y-122254104D01*
X120394780Y-122254104D02*
X120851923Y-122254104D01*
X120623352Y-122254104D02*
X120623352Y-121454104D01*
X120699542Y-121568390D01*
X120775733Y-121644580D01*
X120851923Y-121682676D01*
X119709066Y-121720771D02*
X119709066Y-122254104D01*
X119899542Y-121416009D02*
X120090019Y-121987438D01*
X119594780Y-121987438D01*
X102565028Y-122254104D02*
X102565028Y-121454104D01*
X102374552Y-121454104D01*
X102260266Y-121492200D01*
X102184076Y-121568390D01*
X102145980Y-121644580D01*
X102107885Y-121796961D01*
X102107885Y-121911247D01*
X102145980Y-122063628D01*
X102184076Y-122139819D01*
X102260266Y-122216009D01*
X102374552Y-122254104D01*
X102565028Y-122254104D01*
X101345980Y-122254104D02*
X101803123Y-122254104D01*
X101574552Y-122254104D02*
X101574552Y-121454104D01*
X101650742Y-121568390D01*
X101726933Y-121644580D01*
X101803123Y-121682676D01*
X101079314Y-121454104D02*
X100584076Y-121454104D01*
X100850742Y-121758866D01*
X100736457Y-121758866D01*
X100660266Y-121796961D01*
X100622171Y-121835057D01*
X100584076Y-121911247D01*
X100584076Y-122101723D01*
X100622171Y-122177914D01*
X100660266Y-122216009D01*
X100736457Y-122254104D01*
X100965028Y-122254104D01*
X101041219Y-122216009D01*
X101079314Y-122177914D01*
X159711428Y-103205304D02*
X159711428Y-102405304D01*
X159520952Y-102405304D01*
X159406666Y-102443400D01*
X159330476Y-102519590D01*
X159292380Y-102595780D01*
X159254285Y-102748161D01*
X159254285Y-102862447D01*
X159292380Y-103014828D01*
X159330476Y-103091019D01*
X159406666Y-103167209D01*
X159520952Y-103205304D01*
X159711428Y-103205304D01*
X158492380Y-103205304D02*
X158949523Y-103205304D01*
X158720952Y-103205304D02*
X158720952Y-102405304D01*
X158797142Y-102519590D01*
X158873333Y-102595780D01*
X158949523Y-102633876D01*
X158187619Y-102481495D02*
X158149523Y-102443400D01*
X158073333Y-102405304D01*
X157882857Y-102405304D01*
X157806666Y-102443400D01*
X157768571Y-102481495D01*
X157730476Y-102557685D01*
X157730476Y-102633876D01*
X157768571Y-102748161D01*
X158225714Y-103205304D01*
X157730476Y-103205304D01*
X140662628Y-103205304D02*
X140662628Y-102405304D01*
X140472152Y-102405304D01*
X140357866Y-102443400D01*
X140281676Y-102519590D01*
X140243580Y-102595780D01*
X140205485Y-102748161D01*
X140205485Y-102862447D01*
X140243580Y-103014828D01*
X140281676Y-103091019D01*
X140357866Y-103167209D01*
X140472152Y-103205304D01*
X140662628Y-103205304D01*
X139443580Y-103205304D02*
X139900723Y-103205304D01*
X139672152Y-103205304D02*
X139672152Y-102405304D01*
X139748342Y-102519590D01*
X139824533Y-102595780D01*
X139900723Y-102633876D01*
X138681676Y-103205304D02*
X139138819Y-103205304D01*
X138910247Y-103205304D02*
X138910247Y-102405304D01*
X138986438Y-102519590D01*
X139062628Y-102595780D01*
X139138819Y-102633876D01*
X121613828Y-103205304D02*
X121613828Y-102405304D01*
X121423352Y-102405304D01*
X121309066Y-102443400D01*
X121232876Y-102519590D01*
X121194780Y-102595780D01*
X121156685Y-102748161D01*
X121156685Y-102862447D01*
X121194780Y-103014828D01*
X121232876Y-103091019D01*
X121309066Y-103167209D01*
X121423352Y-103205304D01*
X121613828Y-103205304D01*
X120394780Y-103205304D02*
X120851923Y-103205304D01*
X120623352Y-103205304D02*
X120623352Y-102405304D01*
X120699542Y-102519590D01*
X120775733Y-102595780D01*
X120851923Y-102633876D01*
X119899542Y-102405304D02*
X119823352Y-102405304D01*
X119747161Y-102443400D01*
X119709066Y-102481495D01*
X119670971Y-102557685D01*
X119632876Y-102710066D01*
X119632876Y-102900542D01*
X119670971Y-103052923D01*
X119709066Y-103129114D01*
X119747161Y-103167209D01*
X119823352Y-103205304D01*
X119899542Y-103205304D01*
X119975733Y-103167209D01*
X120013828Y-103129114D01*
X120051923Y-103052923D01*
X120090019Y-102900542D01*
X120090019Y-102710066D01*
X120051923Y-102557685D01*
X120013828Y-102481495D01*
X119975733Y-102443400D01*
X119899542Y-102405304D01*
X102184076Y-103205304D02*
X102184076Y-102405304D01*
X101993600Y-102405304D01*
X101879314Y-102443400D01*
X101803123Y-102519590D01*
X101765028Y-102595780D01*
X101726933Y-102748161D01*
X101726933Y-102862447D01*
X101765028Y-103014828D01*
X101803123Y-103091019D01*
X101879314Y-103167209D01*
X101993600Y-103205304D01*
X102184076Y-103205304D01*
X101345980Y-103205304D02*
X101193600Y-103205304D01*
X101117409Y-103167209D01*
X101079314Y-103129114D01*
X101003123Y-103014828D01*
X100965028Y-102862447D01*
X100965028Y-102557685D01*
X101003123Y-102481495D01*
X101041219Y-102443400D01*
X101117409Y-102405304D01*
X101269790Y-102405304D01*
X101345980Y-102443400D01*
X101384076Y-102481495D01*
X101422171Y-102557685D01*
X101422171Y-102748161D01*
X101384076Y-102824352D01*
X101345980Y-102862447D01*
X101269790Y-102900542D01*
X101117409Y-102900542D01*
X101041219Y-102862447D01*
X101003123Y-102824352D01*
X100965028Y-102748161D01*
X159330476Y-84156504D02*
X159330476Y-83356504D01*
X159140000Y-83356504D01*
X159025714Y-83394600D01*
X158949523Y-83470790D01*
X158911428Y-83546980D01*
X158873333Y-83699361D01*
X158873333Y-83813647D01*
X158911428Y-83966028D01*
X158949523Y-84042219D01*
X159025714Y-84118409D01*
X159140000Y-84156504D01*
X159330476Y-84156504D01*
X158606666Y-83356504D02*
X158073333Y-83356504D01*
X158416190Y-84156504D01*
X140281676Y-84156504D02*
X140281676Y-83356504D01*
X140091200Y-83356504D01*
X139976914Y-83394600D01*
X139900723Y-83470790D01*
X139862628Y-83546980D01*
X139824533Y-83699361D01*
X139824533Y-83813647D01*
X139862628Y-83966028D01*
X139900723Y-84042219D01*
X139976914Y-84118409D01*
X140091200Y-84156504D01*
X140281676Y-84156504D01*
X139138819Y-83356504D02*
X139291200Y-83356504D01*
X139367390Y-83394600D01*
X139405485Y-83432695D01*
X139481676Y-83546980D01*
X139519771Y-83699361D01*
X139519771Y-84004123D01*
X139481676Y-84080314D01*
X139443580Y-84118409D01*
X139367390Y-84156504D01*
X139215009Y-84156504D01*
X139138819Y-84118409D01*
X139100723Y-84080314D01*
X139062628Y-84004123D01*
X139062628Y-83813647D01*
X139100723Y-83737457D01*
X139138819Y-83699361D01*
X139215009Y-83661266D01*
X139367390Y-83661266D01*
X139443580Y-83699361D01*
X139481676Y-83737457D01*
X139519771Y-83813647D01*
X121232876Y-84156504D02*
X121232876Y-83356504D01*
X121042400Y-83356504D01*
X120928114Y-83394600D01*
X120851923Y-83470790D01*
X120813828Y-83546980D01*
X120775733Y-83699361D01*
X120775733Y-83813647D01*
X120813828Y-83966028D01*
X120851923Y-84042219D01*
X120928114Y-84118409D01*
X121042400Y-84156504D01*
X121232876Y-84156504D01*
X120051923Y-83356504D02*
X120432876Y-83356504D01*
X120470971Y-83737457D01*
X120432876Y-83699361D01*
X120356685Y-83661266D01*
X120166209Y-83661266D01*
X120090019Y-83699361D01*
X120051923Y-83737457D01*
X120013828Y-83813647D01*
X120013828Y-84004123D01*
X120051923Y-84080314D01*
X120090019Y-84118409D01*
X120166209Y-84156504D01*
X120356685Y-84156504D01*
X120432876Y-84118409D01*
X120470971Y-84080314D01*
X102184076Y-84156504D02*
X102184076Y-83356504D01*
X101993600Y-83356504D01*
X101879314Y-83394600D01*
X101803123Y-83470790D01*
X101765028Y-83546980D01*
X101726933Y-83699361D01*
X101726933Y-83813647D01*
X101765028Y-83966028D01*
X101803123Y-84042219D01*
X101879314Y-84118409D01*
X101993600Y-84156504D01*
X102184076Y-84156504D01*
X101041219Y-83623171D02*
X101041219Y-84156504D01*
X101231695Y-83318409D02*
X101422171Y-83889838D01*
X100926933Y-83889838D01*
X140281676Y-65107704D02*
X140281676Y-64307704D01*
X140091200Y-64307704D01*
X139976914Y-64345800D01*
X139900723Y-64421990D01*
X139862628Y-64498180D01*
X139824533Y-64650561D01*
X139824533Y-64764847D01*
X139862628Y-64917228D01*
X139900723Y-64993419D01*
X139976914Y-65069609D01*
X140091200Y-65107704D01*
X140281676Y-65107704D01*
X139557866Y-64307704D02*
X139062628Y-64307704D01*
X139329295Y-64612466D01*
X139215009Y-64612466D01*
X139138819Y-64650561D01*
X139100723Y-64688657D01*
X139062628Y-64764847D01*
X139062628Y-64955323D01*
X139100723Y-65031514D01*
X139138819Y-65069609D01*
X139215009Y-65107704D01*
X139443580Y-65107704D01*
X139519771Y-65069609D01*
X139557866Y-65031514D01*
X121232876Y-65107704D02*
X121232876Y-64307704D01*
X121042400Y-64307704D01*
X120928114Y-64345800D01*
X120851923Y-64421990D01*
X120813828Y-64498180D01*
X120775733Y-64650561D01*
X120775733Y-64764847D01*
X120813828Y-64917228D01*
X120851923Y-64993419D01*
X120928114Y-65069609D01*
X121042400Y-65107704D01*
X121232876Y-65107704D01*
X120470971Y-64383895D02*
X120432876Y-64345800D01*
X120356685Y-64307704D01*
X120166209Y-64307704D01*
X120090019Y-64345800D01*
X120051923Y-64383895D01*
X120013828Y-64460085D01*
X120013828Y-64536276D01*
X120051923Y-64650561D01*
X120509066Y-65107704D01*
X120013828Y-65107704D01*
X112332285Y-67591680D02*
X112332285Y-66591680D01*
X112094190Y-66591680D01*
X111951333Y-66639300D01*
X111856095Y-66734538D01*
X111808476Y-66829776D01*
X111760857Y-67020252D01*
X111760857Y-67163109D01*
X111808476Y-67353585D01*
X111856095Y-67448823D01*
X111951333Y-67544061D01*
X112094190Y-67591680D01*
X112332285Y-67591680D01*
X110808476Y-67591680D02*
X111379904Y-67591680D01*
X111094190Y-67591680D02*
X111094190Y-66591680D01*
X111189428Y-66734538D01*
X111284666Y-66829776D01*
X111379904Y-66877395D01*
X110332285Y-67591680D02*
X110141809Y-67591680D01*
X110046571Y-67544061D01*
X109998952Y-67496442D01*
X109903714Y-67353585D01*
X109856095Y-67163109D01*
X109856095Y-66782157D01*
X109903714Y-66686919D01*
X109951333Y-66639300D01*
X110046571Y-66591680D01*
X110237047Y-66591680D01*
X110332285Y-66639300D01*
X110379904Y-66686919D01*
X110427523Y-66782157D01*
X110427523Y-67020252D01*
X110379904Y-67115490D01*
X110332285Y-67163109D01*
X110237047Y-67210728D01*
X110046571Y-67210728D01*
X109951333Y-67163109D01*
X109903714Y-67115490D01*
X109856095Y-67020252D01*
X114982285Y-69491680D02*
X115553714Y-69491680D01*
X115268000Y-69491680D02*
X115268000Y-68491680D01*
X115363238Y-68634538D01*
X115458476Y-68729776D01*
X115553714Y-68777395D01*
X150429885Y-67591680D02*
X150429885Y-66591680D01*
X150191790Y-66591680D01*
X150048933Y-66639300D01*
X149953695Y-66734538D01*
X149906076Y-66829776D01*
X149858457Y-67020252D01*
X149858457Y-67163109D01*
X149906076Y-67353585D01*
X149953695Y-67448823D01*
X150048933Y-67544061D01*
X150191790Y-67591680D01*
X150429885Y-67591680D01*
X149477504Y-66686919D02*
X149429885Y-66639300D01*
X149334647Y-66591680D01*
X149096552Y-66591680D01*
X149001314Y-66639300D01*
X148953695Y-66686919D01*
X148906076Y-66782157D01*
X148906076Y-66877395D01*
X148953695Y-67020252D01*
X149525123Y-67591680D01*
X148906076Y-67591680D01*
X148287028Y-66591680D02*
X148191790Y-66591680D01*
X148096552Y-66639300D01*
X148048933Y-66686919D01*
X148001314Y-66782157D01*
X147953695Y-66972633D01*
X147953695Y-67210728D01*
X148001314Y-67401204D01*
X148048933Y-67496442D01*
X148096552Y-67544061D01*
X148191790Y-67591680D01*
X148287028Y-67591680D01*
X148382266Y-67544061D01*
X148429885Y-67496442D01*
X148477504Y-67401204D01*
X148525123Y-67210728D01*
X148525123Y-66972633D01*
X148477504Y-66782157D01*
X148429885Y-66686919D01*
X148382266Y-66639300D01*
X148287028Y-66591680D01*
X153079885Y-69491680D02*
X153651314Y-69491680D01*
X153365600Y-69491680D02*
X153365600Y-68491680D01*
X153460838Y-68634538D01*
X153556076Y-68729776D01*
X153651314Y-68777395D01*
X131381085Y-93640480D02*
X131381085Y-92640480D01*
X131142990Y-92640480D01*
X131000133Y-92688100D01*
X130904895Y-92783338D01*
X130857276Y-92878576D01*
X130809657Y-93069052D01*
X130809657Y-93211909D01*
X130857276Y-93402385D01*
X130904895Y-93497623D01*
X131000133Y-93592861D01*
X131142990Y-93640480D01*
X131381085Y-93640480D01*
X130428704Y-92735719D02*
X130381085Y-92688100D01*
X130285847Y-92640480D01*
X130047752Y-92640480D01*
X129952514Y-92688100D01*
X129904895Y-92735719D01*
X129857276Y-92830957D01*
X129857276Y-92926195D01*
X129904895Y-93069052D01*
X130476323Y-93640480D01*
X129857276Y-93640480D01*
X128904895Y-93640480D02*
X129476323Y-93640480D01*
X129190609Y-93640480D02*
X129190609Y-92640480D01*
X129285847Y-92783338D01*
X129381085Y-92878576D01*
X129476323Y-92926195D01*
X125731085Y-91740480D02*
X126302514Y-91740480D01*
X126016800Y-91740480D02*
X126016800Y-90740480D01*
X126112038Y-90883338D01*
X126207276Y-90978576D01*
X126302514Y-91026195D01*
X131381085Y-105689280D02*
X131381085Y-104689280D01*
X131142990Y-104689280D01*
X131000133Y-104736900D01*
X130904895Y-104832138D01*
X130857276Y-104927376D01*
X130809657Y-105117852D01*
X130809657Y-105260709D01*
X130857276Y-105451185D01*
X130904895Y-105546423D01*
X131000133Y-105641661D01*
X131142990Y-105689280D01*
X131381085Y-105689280D01*
X130428704Y-104784519D02*
X130381085Y-104736900D01*
X130285847Y-104689280D01*
X130047752Y-104689280D01*
X129952514Y-104736900D01*
X129904895Y-104784519D01*
X129857276Y-104879757D01*
X129857276Y-104974995D01*
X129904895Y-105117852D01*
X130476323Y-105689280D01*
X129857276Y-105689280D01*
X129476323Y-104784519D02*
X129428704Y-104736900D01*
X129333466Y-104689280D01*
X129095371Y-104689280D01*
X129000133Y-104736900D01*
X128952514Y-104784519D01*
X128904895Y-104879757D01*
X128904895Y-104974995D01*
X128952514Y-105117852D01*
X129523942Y-105689280D01*
X128904895Y-105689280D01*
X134031085Y-107589280D02*
X134602514Y-107589280D01*
X134316800Y-107589280D02*
X134316800Y-106589280D01*
X134412038Y-106732138D01*
X134507276Y-106827376D01*
X134602514Y-106874995D01*
X148842485Y-123944380D02*
X148842485Y-122944380D01*
X148604390Y-122944380D01*
X148461533Y-122992000D01*
X148366295Y-123087238D01*
X148318676Y-123182476D01*
X148271057Y-123372952D01*
X148271057Y-123515809D01*
X148318676Y-123706285D01*
X148366295Y-123801523D01*
X148461533Y-123896761D01*
X148604390Y-123944380D01*
X148842485Y-123944380D01*
X147890104Y-123039619D02*
X147842485Y-122992000D01*
X147747247Y-122944380D01*
X147509152Y-122944380D01*
X147413914Y-122992000D01*
X147366295Y-123039619D01*
X147318676Y-123134857D01*
X147318676Y-123230095D01*
X147366295Y-123372952D01*
X147937723Y-123944380D01*
X147318676Y-123944380D01*
X146985342Y-122944380D02*
X146366295Y-122944380D01*
X146699628Y-123325333D01*
X146556771Y-123325333D01*
X146461533Y-123372952D01*
X146413914Y-123420571D01*
X146366295Y-123515809D01*
X146366295Y-123753904D01*
X146413914Y-123849142D01*
X146461533Y-123896761D01*
X146556771Y-123944380D01*
X146842485Y-123944380D01*
X146937723Y-123896761D01*
X146985342Y-123849142D01*
X151492485Y-125844380D02*
X152063914Y-125844380D01*
X151778200Y-125844380D02*
X151778200Y-124844380D01*
X151873438Y-124987238D01*
X151968676Y-125082476D01*
X152063914Y-125130095D01*
X66043766Y-89806230D02*
X66377100Y-89330040D01*
X66615195Y-89806230D02*
X66615195Y-88806230D01*
X66234242Y-88806230D01*
X66139004Y-88853850D01*
X66091385Y-88901469D01*
X66043766Y-88996707D01*
X66043766Y-89139564D01*
X66091385Y-89234802D01*
X66139004Y-89282421D01*
X66234242Y-89330040D01*
X66615195Y-89330040D01*
X65091385Y-89806230D02*
X65662814Y-89806230D01*
X65377100Y-89806230D02*
X65377100Y-88806230D01*
X65472338Y-88949088D01*
X65567576Y-89044326D01*
X65662814Y-89091945D01*
X62531861Y-93513816D02*
X62579480Y-93656673D01*
X62579480Y-93894769D01*
X62531861Y-93990007D01*
X62484242Y-94037626D01*
X62389004Y-94085245D01*
X62293766Y-94085245D01*
X62198528Y-94037626D01*
X62150909Y-93990007D01*
X62103290Y-93894769D01*
X62055671Y-93704292D01*
X62008052Y-93609054D01*
X61960433Y-93561435D01*
X61865195Y-93513816D01*
X61769957Y-93513816D01*
X61674719Y-93561435D01*
X61627100Y-93609054D01*
X61579480Y-93704292D01*
X61579480Y-93942388D01*
X61627100Y-94085245D01*
X61579480Y-94418578D02*
X62579480Y-94656673D01*
X61865195Y-94847150D01*
X62579480Y-95037626D01*
X61579480Y-95275721D01*
X62579480Y-96180483D02*
X62579480Y-95609054D01*
X62579480Y-95894769D02*
X61579480Y-95894769D01*
X61722338Y-95799530D01*
X61817576Y-95704292D01*
X61865195Y-95609054D01*
M02*
