G04 #@! TF.GenerationSoftware,KiCad,Pcbnew,(5.1.9)-1*
G04 #@! TF.CreationDate,2021-05-12T14:45:45+02:00*
G04 #@! TF.ProjectId,RotPad,526f7450-6164-42e6-9b69-6361645f7063,rev?*
G04 #@! TF.SameCoordinates,Original*
G04 #@! TF.FileFunction,Soldermask,Top*
G04 #@! TF.FilePolarity,Negative*
%FSLAX46Y46*%
G04 Gerber Fmt 4.6, Leading zero omitted, Abs format (unit mm)*
G04 Created by KiCad (PCBNEW (5.1.9)-1) date 2021-05-12 14:45:45*
%MOMM*%
%LPD*%
G01*
G04 APERTURE LIST*
%ADD10C,2.250000*%
%ADD11C,3.987800*%
%ADD12C,1.750000*%
%ADD13R,2.000000X2.000000*%
%ADD14C,2.000000*%
%ADD15R,3.200000X2.000000*%
%ADD16R,1.700000X1.700000*%
%ADD17O,1.700000X1.700000*%
%ADD18C,1.700000*%
%ADD19C,3.048000*%
%ADD20R,0.550000X1.500000*%
%ADD21R,1.500000X0.550000*%
%ADD22R,1.800000X2.100000*%
%ADD23R,0.700000X1.000000*%
%ADD24R,0.700000X0.600000*%
%ADD25C,0.650000*%
%ADD26R,0.300000X2.450000*%
%ADD27R,0.600000X2.450000*%
G04 APERTURE END LIST*
G36*
G01*
X142112724Y-114883560D02*
X142112724Y-114883560D01*
G75*
G02*
X141068940Y-113682824I78476J1122260D01*
G01*
X141109494Y-113102862D01*
G75*
G02*
X142310230Y-112059078I1122260J-78476D01*
G01*
X142310230Y-112059078D01*
G75*
G02*
X143354014Y-113259814I-78476J-1122260D01*
G01*
X143313460Y-113839776D01*
G75*
G02*
X142112724Y-114883560I-1122260J78476D01*
G01*
G37*
D10*
X142231200Y-113181300D03*
G36*
G01*
X135128428Y-116557338D02*
X135128428Y-116557338D01*
G75*
G02*
X135045162Y-114968528I752772J836038D01*
G01*
X136357700Y-113510808D01*
G75*
G02*
X137946510Y-113427542I836038J-752772D01*
G01*
X137946510Y-113427542D01*
G75*
G02*
X138029776Y-115016352I-752772J-836038D01*
G01*
X136717238Y-116474072D01*
G75*
G02*
X135128428Y-116557338I-836038J752772D01*
G01*
G37*
D11*
X139691200Y-118261300D03*
D10*
X137191200Y-114261300D03*
D12*
X134611200Y-118261300D03*
X144771200Y-118261300D03*
G36*
G01*
X123063924Y-114883560D02*
X123063924Y-114883560D01*
G75*
G02*
X122020140Y-113682824I78476J1122260D01*
G01*
X122060694Y-113102862D01*
G75*
G02*
X123261430Y-112059078I1122260J-78476D01*
G01*
X123261430Y-112059078D01*
G75*
G02*
X124305214Y-113259814I-78476J-1122260D01*
G01*
X124264660Y-113839776D01*
G75*
G02*
X123063924Y-114883560I-1122260J78476D01*
G01*
G37*
D10*
X123182400Y-113181300D03*
G36*
G01*
X116079628Y-116557338D02*
X116079628Y-116557338D01*
G75*
G02*
X115996362Y-114968528I752772J836038D01*
G01*
X117308900Y-113510808D01*
G75*
G02*
X118897710Y-113427542I836038J-752772D01*
G01*
X118897710Y-113427542D01*
G75*
G02*
X118980976Y-115016352I-752772J-836038D01*
G01*
X117668438Y-116474072D01*
G75*
G02*
X116079628Y-116557338I-836038J752772D01*
G01*
G37*
D11*
X120642400Y-118261300D03*
D10*
X118142400Y-114261300D03*
D12*
X115562400Y-118261300D03*
X125722400Y-118261300D03*
G36*
G01*
X161161524Y-76785960D02*
X161161524Y-76785960D01*
G75*
G02*
X160117740Y-75585224I78476J1122260D01*
G01*
X160158294Y-75005262D01*
G75*
G02*
X161359030Y-73961478I1122260J-78476D01*
G01*
X161359030Y-73961478D01*
G75*
G02*
X162402814Y-75162214I-78476J-1122260D01*
G01*
X162362260Y-75742176D01*
G75*
G02*
X161161524Y-76785960I-1122260J78476D01*
G01*
G37*
D10*
X161280000Y-75083700D03*
G36*
G01*
X154177228Y-78459738D02*
X154177228Y-78459738D01*
G75*
G02*
X154093962Y-76870928I752772J836038D01*
G01*
X155406500Y-75413208D01*
G75*
G02*
X156995310Y-75329942I836038J-752772D01*
G01*
X156995310Y-75329942D01*
G75*
G02*
X157078576Y-76918752I-752772J-836038D01*
G01*
X155766038Y-78376472D01*
G75*
G02*
X154177228Y-78459738I-836038J752772D01*
G01*
G37*
D11*
X158740000Y-80163700D03*
D10*
X156240000Y-76163700D03*
D12*
X153660000Y-80163700D03*
X163820000Y-80163700D03*
D13*
X166233300Y-63696000D03*
D14*
X166233300Y-61196000D03*
X166233300Y-58696000D03*
D15*
X158733300Y-66796000D03*
X158733300Y-55596000D03*
D14*
X151733300Y-63696000D03*
X151733300Y-58696000D03*
D16*
X79170000Y-102784150D03*
D17*
X76630000Y-102784150D03*
X74090000Y-102784150D03*
X71550000Y-102784150D03*
D18*
X64607100Y-60480100D03*
X67147100Y-60480100D03*
X64607100Y-57940100D03*
X67147100Y-57940100D03*
X64607100Y-55400100D03*
D16*
X67147100Y-55400100D03*
G36*
G01*
X142112724Y-57737160D02*
X142112724Y-57737160D01*
G75*
G02*
X141068940Y-56536424I78476J1122260D01*
G01*
X141109494Y-55956462D01*
G75*
G02*
X142310230Y-54912678I1122260J-78476D01*
G01*
X142310230Y-54912678D01*
G75*
G02*
X143354014Y-56113414I-78476J-1122260D01*
G01*
X143313460Y-56693376D01*
G75*
G02*
X142112724Y-57737160I-1122260J78476D01*
G01*
G37*
D10*
X142231200Y-56034900D03*
G36*
G01*
X135128428Y-59410938D02*
X135128428Y-59410938D01*
G75*
G02*
X135045162Y-57822128I752772J836038D01*
G01*
X136357700Y-56364408D01*
G75*
G02*
X137946510Y-56281142I836038J-752772D01*
G01*
X137946510Y-56281142D01*
G75*
G02*
X138029776Y-57869952I-752772J-836038D01*
G01*
X136717238Y-59327672D01*
G75*
G02*
X135128428Y-59410938I-836038J752772D01*
G01*
G37*
D11*
X139691200Y-61114900D03*
D10*
X137191200Y-57114900D03*
D12*
X134611200Y-61114900D03*
X144771200Y-61114900D03*
G36*
G01*
X123063924Y-57737160D02*
X123063924Y-57737160D01*
G75*
G02*
X122020140Y-56536424I78476J1122260D01*
G01*
X122060694Y-55956462D01*
G75*
G02*
X123261430Y-54912678I1122260J-78476D01*
G01*
X123261430Y-54912678D01*
G75*
G02*
X124305214Y-56113414I-78476J-1122260D01*
G01*
X124264660Y-56693376D01*
G75*
G02*
X123063924Y-57737160I-1122260J78476D01*
G01*
G37*
D10*
X123182400Y-56034900D03*
G36*
G01*
X116079628Y-59410938D02*
X116079628Y-59410938D01*
G75*
G02*
X115996362Y-57822128I752772J836038D01*
G01*
X117308900Y-56364408D01*
G75*
G02*
X118897710Y-56281142I836038J-752772D01*
G01*
X118897710Y-56281142D01*
G75*
G02*
X118980976Y-57869952I-752772J-836038D01*
G01*
X117668438Y-59327672D01*
G75*
G02*
X116079628Y-59410938I-836038J752772D01*
G01*
G37*
D11*
X120642400Y-61114900D03*
D10*
X118142400Y-57114900D03*
D12*
X115562400Y-61114900D03*
X125722400Y-61114900D03*
G36*
G01*
X123063924Y-76785960D02*
X123063924Y-76785960D01*
G75*
G02*
X122020140Y-75585224I78476J1122260D01*
G01*
X122060694Y-75005262D01*
G75*
G02*
X123261430Y-73961478I1122260J-78476D01*
G01*
X123261430Y-73961478D01*
G75*
G02*
X124305214Y-75162214I-78476J-1122260D01*
G01*
X124264660Y-75742176D01*
G75*
G02*
X123063924Y-76785960I-1122260J78476D01*
G01*
G37*
D10*
X123182400Y-75083700D03*
G36*
G01*
X116079628Y-78459738D02*
X116079628Y-78459738D01*
G75*
G02*
X115996362Y-76870928I752772J836038D01*
G01*
X117308900Y-75413208D01*
G75*
G02*
X118897710Y-75329942I836038J-752772D01*
G01*
X118897710Y-75329942D01*
G75*
G02*
X118980976Y-76918752I-752772J-836038D01*
G01*
X117668438Y-78376472D01*
G75*
G02*
X116079628Y-78459738I-836038J752772D01*
G01*
G37*
D11*
X120642400Y-80163700D03*
D10*
X118142400Y-76163700D03*
D12*
X115562400Y-80163700D03*
X125722400Y-80163700D03*
G36*
G01*
X123063924Y-95834760D02*
X123063924Y-95834760D01*
G75*
G02*
X122020140Y-94634024I78476J1122260D01*
G01*
X122060694Y-94054062D01*
G75*
G02*
X123261430Y-93010278I1122260J-78476D01*
G01*
X123261430Y-93010278D01*
G75*
G02*
X124305214Y-94211014I-78476J-1122260D01*
G01*
X124264660Y-94790976D01*
G75*
G02*
X123063924Y-95834760I-1122260J78476D01*
G01*
G37*
D10*
X123182400Y-94132500D03*
G36*
G01*
X116079628Y-97508538D02*
X116079628Y-97508538D01*
G75*
G02*
X115996362Y-95919728I752772J836038D01*
G01*
X117308900Y-94462008D01*
G75*
G02*
X118897710Y-94378742I836038J-752772D01*
G01*
X118897710Y-94378742D01*
G75*
G02*
X118980976Y-95967552I-752772J-836038D01*
G01*
X117668438Y-97425272D01*
G75*
G02*
X116079628Y-97508538I-836038J752772D01*
G01*
G37*
D11*
X120642400Y-99212500D03*
D10*
X118142400Y-95212500D03*
D12*
X115562400Y-99212500D03*
X125722400Y-99212500D03*
G36*
G01*
X104015124Y-76785960D02*
X104015124Y-76785960D01*
G75*
G02*
X102971340Y-75585224I78476J1122260D01*
G01*
X103011894Y-75005262D01*
G75*
G02*
X104212630Y-73961478I1122260J-78476D01*
G01*
X104212630Y-73961478D01*
G75*
G02*
X105256414Y-75162214I-78476J-1122260D01*
G01*
X105215860Y-75742176D01*
G75*
G02*
X104015124Y-76785960I-1122260J78476D01*
G01*
G37*
D10*
X104133600Y-75083700D03*
G36*
G01*
X97030828Y-78459738D02*
X97030828Y-78459738D01*
G75*
G02*
X96947562Y-76870928I752772J836038D01*
G01*
X98260100Y-75413208D01*
G75*
G02*
X99848910Y-75329942I836038J-752772D01*
G01*
X99848910Y-75329942D01*
G75*
G02*
X99932176Y-76918752I-752772J-836038D01*
G01*
X98619638Y-78376472D01*
G75*
G02*
X97030828Y-78459738I-836038J752772D01*
G01*
G37*
D11*
X101593600Y-80163700D03*
D10*
X99093600Y-76163700D03*
D12*
X96513600Y-80163700D03*
X106673600Y-80163700D03*
G36*
G01*
X142112724Y-76785960D02*
X142112724Y-76785960D01*
G75*
G02*
X141068940Y-75585224I78476J1122260D01*
G01*
X141109494Y-75005262D01*
G75*
G02*
X142310230Y-73961478I1122260J-78476D01*
G01*
X142310230Y-73961478D01*
G75*
G02*
X143354014Y-75162214I-78476J-1122260D01*
G01*
X143313460Y-75742176D01*
G75*
G02*
X142112724Y-76785960I-1122260J78476D01*
G01*
G37*
D10*
X142231200Y-75083700D03*
G36*
G01*
X135128428Y-78459738D02*
X135128428Y-78459738D01*
G75*
G02*
X135045162Y-76870928I752772J836038D01*
G01*
X136357700Y-75413208D01*
G75*
G02*
X137946510Y-75329942I836038J-752772D01*
G01*
X137946510Y-75329942D01*
G75*
G02*
X138029776Y-76918752I-752772J-836038D01*
G01*
X136717238Y-78376472D01*
G75*
G02*
X135128428Y-78459738I-836038J752772D01*
G01*
G37*
D11*
X139691200Y-80163700D03*
D10*
X137191200Y-76163700D03*
D12*
X134611200Y-80163700D03*
X144771200Y-80163700D03*
G36*
G01*
X104015124Y-95834760D02*
X104015124Y-95834760D01*
G75*
G02*
X102971340Y-94634024I78476J1122260D01*
G01*
X103011894Y-94054062D01*
G75*
G02*
X104212630Y-93010278I1122260J-78476D01*
G01*
X104212630Y-93010278D01*
G75*
G02*
X105256414Y-94211014I-78476J-1122260D01*
G01*
X105215860Y-94790976D01*
G75*
G02*
X104015124Y-95834760I-1122260J78476D01*
G01*
G37*
D10*
X104133600Y-94132500D03*
G36*
G01*
X97030828Y-97508538D02*
X97030828Y-97508538D01*
G75*
G02*
X96947562Y-95919728I752772J836038D01*
G01*
X98260100Y-94462008D01*
G75*
G02*
X99848910Y-94378742I836038J-752772D01*
G01*
X99848910Y-94378742D01*
G75*
G02*
X99932176Y-95967552I-752772J-836038D01*
G01*
X98619638Y-97425272D01*
G75*
G02*
X97030828Y-97508538I-836038J752772D01*
G01*
G37*
D11*
X101593600Y-99212500D03*
D10*
X99093600Y-95212500D03*
D12*
X96513600Y-99212500D03*
X106673600Y-99212500D03*
G36*
G01*
X142112724Y-95834760D02*
X142112724Y-95834760D01*
G75*
G02*
X141068940Y-94634024I78476J1122260D01*
G01*
X141109494Y-94054062D01*
G75*
G02*
X142310230Y-93010278I1122260J-78476D01*
G01*
X142310230Y-93010278D01*
G75*
G02*
X143354014Y-94211014I-78476J-1122260D01*
G01*
X143313460Y-94790976D01*
G75*
G02*
X142112724Y-95834760I-1122260J78476D01*
G01*
G37*
D10*
X142231200Y-94132500D03*
G36*
G01*
X135128428Y-97508538D02*
X135128428Y-97508538D01*
G75*
G02*
X135045162Y-95919728I752772J836038D01*
G01*
X136357700Y-94462008D01*
G75*
G02*
X137946510Y-94378742I836038J-752772D01*
G01*
X137946510Y-94378742D01*
G75*
G02*
X138029776Y-95967552I-752772J-836038D01*
G01*
X136717238Y-97425272D01*
G75*
G02*
X135128428Y-97508538I-836038J752772D01*
G01*
G37*
D11*
X139691200Y-99212500D03*
D10*
X137191200Y-95212500D03*
D12*
X134611200Y-99212500D03*
X144771200Y-99212500D03*
G36*
G01*
X113539524Y-133932360D02*
X113539524Y-133932360D01*
G75*
G02*
X112495740Y-132731624I78476J1122260D01*
G01*
X112536294Y-132151662D01*
G75*
G02*
X113737030Y-131107878I1122260J-78476D01*
G01*
X113737030Y-131107878D01*
G75*
G02*
X114780814Y-132308614I-78476J-1122260D01*
G01*
X114740260Y-132888576D01*
G75*
G02*
X113539524Y-133932360I-1122260J78476D01*
G01*
G37*
D10*
X113658000Y-132230100D03*
G36*
G01*
X106555228Y-135606138D02*
X106555228Y-135606138D01*
G75*
G02*
X106471962Y-134017328I752772J836038D01*
G01*
X107784500Y-132559608D01*
G75*
G02*
X109373310Y-132476342I836038J-752772D01*
G01*
X109373310Y-132476342D01*
G75*
G02*
X109456576Y-134065152I-752772J-836038D01*
G01*
X108144038Y-135522872D01*
G75*
G02*
X106555228Y-135606138I-836038J752772D01*
G01*
G37*
D11*
X111118000Y-137310100D03*
D10*
X108618000Y-133310100D03*
D12*
X106038000Y-137310100D03*
X116198000Y-137310100D03*
D19*
X99180000Y-130325100D03*
X123056000Y-130325100D03*
D11*
X99180000Y-145565100D03*
X123056000Y-145565100D03*
G36*
G01*
X155362260Y-125364176D02*
X155362260Y-125364176D01*
G75*
G02*
X154161524Y-126407960I-1122260J78476D01*
G01*
X153581562Y-126367406D01*
G75*
G02*
X152537778Y-125166670I78476J1122260D01*
G01*
X152537778Y-125166670D01*
G75*
G02*
X153738514Y-124122886I1122260J-78476D01*
G01*
X154318476Y-124163440D01*
G75*
G02*
X155362260Y-125364176I-78476J-1122260D01*
G01*
G37*
D10*
X153660000Y-125245700D03*
G36*
G01*
X157036038Y-132348472D02*
X157036038Y-132348472D01*
G75*
G02*
X155447228Y-132431738I-836038J752772D01*
G01*
X153989508Y-131119200D01*
G75*
G02*
X153906242Y-129530390I752772J836038D01*
G01*
X153906242Y-129530390D01*
G75*
G02*
X155495052Y-129447124I836038J-752772D01*
G01*
X156952772Y-130759662D01*
G75*
G02*
X157036038Y-132348472I-752772J-836038D01*
G01*
G37*
D11*
X158740000Y-127785700D03*
D10*
X154740000Y-130285700D03*
D12*
X158740000Y-132865700D03*
X158740000Y-122705700D03*
D19*
X151755000Y-139723700D03*
X151755000Y-115847700D03*
D11*
X166995000Y-139723700D03*
X166995000Y-115847700D03*
G36*
G01*
X161161524Y-95834760D02*
X161161524Y-95834760D01*
G75*
G02*
X160117740Y-94634024I78476J1122260D01*
G01*
X160158294Y-94054062D01*
G75*
G02*
X161359030Y-93010278I1122260J-78476D01*
G01*
X161359030Y-93010278D01*
G75*
G02*
X162402814Y-94211014I-78476J-1122260D01*
G01*
X162362260Y-94790976D01*
G75*
G02*
X161161524Y-95834760I-1122260J78476D01*
G01*
G37*
D10*
X161280000Y-94132500D03*
G36*
G01*
X154177228Y-97508538D02*
X154177228Y-97508538D01*
G75*
G02*
X154093962Y-95919728I752772J836038D01*
G01*
X155406500Y-94462008D01*
G75*
G02*
X156995310Y-94378742I836038J-752772D01*
G01*
X156995310Y-94378742D01*
G75*
G02*
X157078576Y-95967552I-752772J-836038D01*
G01*
X155766038Y-97425272D01*
G75*
G02*
X154177228Y-97508538I-836038J752772D01*
G01*
G37*
D11*
X158740000Y-99212500D03*
D10*
X156240000Y-95212500D03*
D12*
X153660000Y-99212500D03*
X163820000Y-99212500D03*
G36*
G01*
X104015124Y-114883560D02*
X104015124Y-114883560D01*
G75*
G02*
X102971340Y-113682824I78476J1122260D01*
G01*
X103011894Y-113102862D01*
G75*
G02*
X104212630Y-112059078I1122260J-78476D01*
G01*
X104212630Y-112059078D01*
G75*
G02*
X105256414Y-113259814I-78476J-1122260D01*
G01*
X105215860Y-113839776D01*
G75*
G02*
X104015124Y-114883560I-1122260J78476D01*
G01*
G37*
D10*
X104133600Y-113181300D03*
G36*
G01*
X97030828Y-116557338D02*
X97030828Y-116557338D01*
G75*
G02*
X96947562Y-114968528I752772J836038D01*
G01*
X98260100Y-113510808D01*
G75*
G02*
X99848910Y-113427542I836038J-752772D01*
G01*
X99848910Y-113427542D01*
G75*
G02*
X99932176Y-115016352I-752772J-836038D01*
G01*
X98619638Y-116474072D01*
G75*
G02*
X97030828Y-116557338I-836038J752772D01*
G01*
G37*
D11*
X101593600Y-118261300D03*
D10*
X99093600Y-114261300D03*
D12*
X96513600Y-118261300D03*
X106673600Y-118261300D03*
G36*
G01*
X142112724Y-133932360D02*
X142112724Y-133932360D01*
G75*
G02*
X141068940Y-132731624I78476J1122260D01*
G01*
X141109494Y-132151662D01*
G75*
G02*
X142310230Y-131107878I1122260J-78476D01*
G01*
X142310230Y-131107878D01*
G75*
G02*
X143354014Y-132308614I-78476J-1122260D01*
G01*
X143313460Y-132888576D01*
G75*
G02*
X142112724Y-133932360I-1122260J78476D01*
G01*
G37*
D10*
X142231200Y-132230100D03*
G36*
G01*
X135128428Y-135606138D02*
X135128428Y-135606138D01*
G75*
G02*
X135045162Y-134017328I752772J836038D01*
G01*
X136357700Y-132559608D01*
G75*
G02*
X137946510Y-132476342I836038J-752772D01*
G01*
X137946510Y-132476342D01*
G75*
G02*
X138029776Y-134065152I-752772J-836038D01*
G01*
X136717238Y-135522872D01*
G75*
G02*
X135128428Y-135606138I-836038J752772D01*
G01*
G37*
D11*
X139691200Y-137310100D03*
D10*
X137191200Y-133310100D03*
D12*
X134611200Y-137310100D03*
X144771200Y-137310100D03*
D20*
X83370000Y-75257400D03*
X82570000Y-75257400D03*
X81770000Y-75257400D03*
X80970000Y-75257400D03*
X80170000Y-75257400D03*
X79370000Y-75257400D03*
X78570000Y-75257400D03*
X77770000Y-75257400D03*
X76970000Y-75257400D03*
X76170000Y-75257400D03*
X75370000Y-75257400D03*
D21*
X73670000Y-76957400D03*
X73670000Y-77757400D03*
X73670000Y-78557400D03*
X73670000Y-79357400D03*
X73670000Y-80157400D03*
X73670000Y-80957400D03*
X73670000Y-81757400D03*
X73670000Y-82557400D03*
X73670000Y-83357400D03*
X73670000Y-84157400D03*
X73670000Y-84957400D03*
D20*
X75370000Y-86657400D03*
X76170000Y-86657400D03*
X76970000Y-86657400D03*
X77770000Y-86657400D03*
X78570000Y-86657400D03*
X79370000Y-86657400D03*
X80170000Y-86657400D03*
X80970000Y-86657400D03*
X81770000Y-86657400D03*
X82570000Y-86657400D03*
X83370000Y-86657400D03*
D21*
X85070000Y-84957400D03*
X85070000Y-84157400D03*
X85070000Y-83357400D03*
X85070000Y-82557400D03*
X85070000Y-81757400D03*
X85070000Y-80957400D03*
X85070000Y-80157400D03*
X85070000Y-79357400D03*
X85070000Y-78557400D03*
X85070000Y-77757400D03*
X85070000Y-76957400D03*
G36*
G01*
X63045999Y-78626300D02*
X63946001Y-78626300D01*
G75*
G02*
X64196000Y-78876299I0J-249999D01*
G01*
X64196000Y-79526301D01*
G75*
G02*
X63946001Y-79776300I-249999J0D01*
G01*
X63045999Y-79776300D01*
G75*
G02*
X62796000Y-79526301I0J249999D01*
G01*
X62796000Y-78876299D01*
G75*
G02*
X63045999Y-78626300I249999J0D01*
G01*
G37*
G36*
G01*
X63045999Y-76576300D02*
X63946001Y-76576300D01*
G75*
G02*
X64196000Y-76826299I0J-249999D01*
G01*
X64196000Y-77476301D01*
G75*
G02*
X63946001Y-77726300I-249999J0D01*
G01*
X63045999Y-77726300D01*
G75*
G02*
X62796000Y-77476301I0J249999D01*
G01*
X62796000Y-76826299D01*
G75*
G02*
X63045999Y-76576300I249999J0D01*
G01*
G37*
G36*
G01*
X79026301Y-72239300D02*
X78126299Y-72239300D01*
G75*
G02*
X77876300Y-71989301I0J249999D01*
G01*
X77876300Y-71339299D01*
G75*
G02*
X78126299Y-71089300I249999J0D01*
G01*
X79026301Y-71089300D01*
G75*
G02*
X79276300Y-71339299I0J-249999D01*
G01*
X79276300Y-71989301D01*
G75*
G02*
X79026301Y-72239300I-249999J0D01*
G01*
G37*
G36*
G01*
X79026301Y-70189300D02*
X78126299Y-70189300D01*
G75*
G02*
X77876300Y-69939301I0J249999D01*
G01*
X77876300Y-69289299D01*
G75*
G02*
X78126299Y-69039300I249999J0D01*
G01*
X79026301Y-69039300D01*
G75*
G02*
X79276300Y-69289299I0J-249999D01*
G01*
X79276300Y-69939301D01*
G75*
G02*
X79026301Y-70189300I-249999J0D01*
G01*
G37*
D22*
X66314500Y-78713700D03*
X66314500Y-81613700D03*
X68614500Y-81613700D03*
X68614500Y-78713700D03*
G36*
G01*
X63946001Y-83744800D02*
X63045999Y-83744800D01*
G75*
G02*
X62796000Y-83494801I0J249999D01*
G01*
X62796000Y-82844799D01*
G75*
G02*
X63045999Y-82594800I249999J0D01*
G01*
X63946001Y-82594800D01*
G75*
G02*
X64196000Y-82844799I0J-249999D01*
G01*
X64196000Y-83494801D01*
G75*
G02*
X63946001Y-83744800I-249999J0D01*
G01*
G37*
G36*
G01*
X63946001Y-81694800D02*
X63045999Y-81694800D01*
G75*
G02*
X62796000Y-81444801I0J249999D01*
G01*
X62796000Y-80794799D01*
G75*
G02*
X63045999Y-80544800I249999J0D01*
G01*
X63946001Y-80544800D01*
G75*
G02*
X64196000Y-80794799I0J-249999D01*
G01*
X64196000Y-81444801D01*
G75*
G02*
X63946001Y-81694800I-249999J0D01*
G01*
G37*
G36*
G01*
X74157800Y-89238099D02*
X74157800Y-90138101D01*
G75*
G02*
X73907801Y-90388100I-249999J0D01*
G01*
X73257799Y-90388100D01*
G75*
G02*
X73007800Y-90138101I0J249999D01*
G01*
X73007800Y-89238099D01*
G75*
G02*
X73257799Y-88988100I249999J0D01*
G01*
X73907801Y-88988100D01*
G75*
G02*
X74157800Y-89238099I0J-249999D01*
G01*
G37*
G36*
G01*
X76207800Y-89238099D02*
X76207800Y-90138101D01*
G75*
G02*
X75957801Y-90388100I-249999J0D01*
G01*
X75307799Y-90388100D01*
G75*
G02*
X75057800Y-90138101I0J249999D01*
G01*
X75057800Y-89238099D01*
G75*
G02*
X75307799Y-88988100I249999J0D01*
G01*
X75957801Y-88988100D01*
G75*
G02*
X76207800Y-89238099I0J-249999D01*
G01*
G37*
G36*
G01*
X87253849Y-75851500D02*
X88153851Y-75851500D01*
G75*
G02*
X88403850Y-76101499I0J-249999D01*
G01*
X88403850Y-76751501D01*
G75*
G02*
X88153851Y-77001500I-249999J0D01*
G01*
X87253849Y-77001500D01*
G75*
G02*
X87003850Y-76751501I0J249999D01*
G01*
X87003850Y-76101499D01*
G75*
G02*
X87253849Y-75851500I249999J0D01*
G01*
G37*
G36*
G01*
X87253849Y-73801500D02*
X88153851Y-73801500D01*
G75*
G02*
X88403850Y-74051499I0J-249999D01*
G01*
X88403850Y-74701501D01*
G75*
G02*
X88153851Y-74951500I-249999J0D01*
G01*
X87253849Y-74951500D01*
G75*
G02*
X87003850Y-74701501I0J249999D01*
G01*
X87003850Y-74051499D01*
G75*
G02*
X87253849Y-73801500I249999J0D01*
G01*
G37*
G36*
G01*
X67014500Y-74951499D02*
X67014500Y-75851501D01*
G75*
G02*
X66764501Y-76101500I-249999J0D01*
G01*
X66114499Y-76101500D01*
G75*
G02*
X65864500Y-75851501I0J249999D01*
G01*
X65864500Y-74951499D01*
G75*
G02*
X66114499Y-74701500I249999J0D01*
G01*
X66764501Y-74701500D01*
G75*
G02*
X67014500Y-74951499I0J-249999D01*
G01*
G37*
G36*
G01*
X69064500Y-74951499D02*
X69064500Y-75851501D01*
G75*
G02*
X68814501Y-76101500I-249999J0D01*
G01*
X68164499Y-76101500D01*
G75*
G02*
X67914500Y-75851501I0J249999D01*
G01*
X67914500Y-74951499D01*
G75*
G02*
X68164499Y-74701500I249999J0D01*
G01*
X68814501Y-74701500D01*
G75*
G02*
X69064500Y-74951499I0J-249999D01*
G01*
G37*
G36*
G01*
X84979051Y-72239300D02*
X84079049Y-72239300D01*
G75*
G02*
X83829050Y-71989301I0J249999D01*
G01*
X83829050Y-71339299D01*
G75*
G02*
X84079049Y-71089300I249999J0D01*
G01*
X84979051Y-71089300D01*
G75*
G02*
X85229050Y-71339299I0J-249999D01*
G01*
X85229050Y-71989301D01*
G75*
G02*
X84979051Y-72239300I-249999J0D01*
G01*
G37*
G36*
G01*
X84979051Y-70189300D02*
X84079049Y-70189300D01*
G75*
G02*
X83829050Y-69939301I0J249999D01*
G01*
X83829050Y-69289299D01*
G75*
G02*
X84079049Y-69039300I249999J0D01*
G01*
X84979051Y-69039300D01*
G75*
G02*
X85229050Y-69289299I0J-249999D01*
G01*
X85229050Y-69939301D01*
G75*
G02*
X84979051Y-70189300I-249999J0D01*
G01*
G37*
G36*
G01*
X89344401Y-85366450D02*
X88444399Y-85366450D01*
G75*
G02*
X88194400Y-85116451I0J249999D01*
G01*
X88194400Y-84466449D01*
G75*
G02*
X88444399Y-84216450I249999J0D01*
G01*
X89344401Y-84216450D01*
G75*
G02*
X89594400Y-84466449I0J-249999D01*
G01*
X89594400Y-85116451D01*
G75*
G02*
X89344401Y-85366450I-249999J0D01*
G01*
G37*
G36*
G01*
X89344401Y-87416450D02*
X88444399Y-87416450D01*
G75*
G02*
X88194400Y-87166451I0J249999D01*
G01*
X88194400Y-86516449D01*
G75*
G02*
X88444399Y-86266450I249999J0D01*
G01*
X89344401Y-86266450D01*
G75*
G02*
X89594400Y-86516449I0J-249999D01*
G01*
X89594400Y-87166451D01*
G75*
G02*
X89344401Y-87416450I-249999J0D01*
G01*
G37*
G36*
G01*
X87475700Y-64271000D02*
X88725700Y-64271000D01*
G75*
G02*
X88975700Y-64521000I0J-250000D01*
G01*
X88975700Y-65446000D01*
G75*
G02*
X88725700Y-65696000I-250000J0D01*
G01*
X87475700Y-65696000D01*
G75*
G02*
X87225700Y-65446000I0J250000D01*
G01*
X87225700Y-64521000D01*
G75*
G02*
X87475700Y-64271000I250000J0D01*
G01*
G37*
G36*
G01*
X87475700Y-61296000D02*
X88725700Y-61296000D01*
G75*
G02*
X88975700Y-61546000I0J-250000D01*
G01*
X88975700Y-62471000D01*
G75*
G02*
X88725700Y-62721000I-250000J0D01*
G01*
X87475700Y-62721000D01*
G75*
G02*
X87225700Y-62471000I0J250000D01*
G01*
X87225700Y-61546000D01*
G75*
G02*
X87475700Y-61296000I250000J0D01*
G01*
G37*
G36*
G01*
X85666450Y-88444399D02*
X85666450Y-89344401D01*
G75*
G02*
X85416451Y-89594400I-249999J0D01*
G01*
X84766449Y-89594400D01*
G75*
G02*
X84516450Y-89344401I0J249999D01*
G01*
X84516450Y-88444399D01*
G75*
G02*
X84766449Y-88194400I249999J0D01*
G01*
X85416451Y-88194400D01*
G75*
G02*
X85666450Y-88444399I0J-249999D01*
G01*
G37*
G36*
G01*
X87716450Y-88444399D02*
X87716450Y-89344401D01*
G75*
G02*
X87466451Y-89594400I-249999J0D01*
G01*
X86816449Y-89594400D01*
G75*
G02*
X86566450Y-89344401I0J249999D01*
G01*
X86566450Y-88444399D01*
G75*
G02*
X86816449Y-88194400I249999J0D01*
G01*
X87466451Y-88194400D01*
G75*
G02*
X87716450Y-88444399I0J-249999D01*
G01*
G37*
D14*
X108600300Y-63733800D03*
X108600300Y-58733800D03*
D15*
X101600300Y-66833800D03*
X101600300Y-55633800D03*
D14*
X94100300Y-63733800D03*
X94100300Y-61233800D03*
D13*
X94100300Y-58733800D03*
D23*
X79957400Y-60364900D03*
D24*
X81957400Y-60164900D03*
X79957400Y-62064900D03*
X81957400Y-62064900D03*
G36*
G01*
X82994801Y-67477100D02*
X82094799Y-67477100D01*
G75*
G02*
X81844800Y-67227101I0J249999D01*
G01*
X81844800Y-66577099D01*
G75*
G02*
X82094799Y-66327100I249999J0D01*
G01*
X82994801Y-66327100D01*
G75*
G02*
X83244800Y-66577099I0J-249999D01*
G01*
X83244800Y-67227101D01*
G75*
G02*
X82994801Y-67477100I-249999J0D01*
G01*
G37*
G36*
G01*
X82994801Y-65427100D02*
X82094799Y-65427100D01*
G75*
G02*
X81844800Y-65177101I0J249999D01*
G01*
X81844800Y-64527099D01*
G75*
G02*
X82094799Y-64277100I249999J0D01*
G01*
X82994801Y-64277100D01*
G75*
G02*
X83244800Y-64527099I0J-249999D01*
G01*
X83244800Y-65177101D01*
G75*
G02*
X82994801Y-65427100I-249999J0D01*
G01*
G37*
G36*
G01*
X79820001Y-65427100D02*
X78919999Y-65427100D01*
G75*
G02*
X78670000Y-65177101I0J249999D01*
G01*
X78670000Y-64527099D01*
G75*
G02*
X78919999Y-64277100I249999J0D01*
G01*
X79820001Y-64277100D01*
G75*
G02*
X80070000Y-64527099I0J-249999D01*
G01*
X80070000Y-65177101D01*
G75*
G02*
X79820001Y-65427100I-249999J0D01*
G01*
G37*
G36*
G01*
X79820001Y-67477100D02*
X78919999Y-67477100D01*
G75*
G02*
X78670000Y-67227101I0J249999D01*
G01*
X78670000Y-66577099D01*
G75*
G02*
X78919999Y-66327100I249999J0D01*
G01*
X79820001Y-66327100D01*
G75*
G02*
X80070000Y-66577099I0J-249999D01*
G01*
X80070000Y-67227101D01*
G75*
G02*
X79820001Y-67477100I-249999J0D01*
G01*
G37*
G36*
G01*
X73364100Y-57093249D02*
X73364100Y-57993251D01*
G75*
G02*
X73114101Y-58243250I-249999J0D01*
G01*
X72464099Y-58243250D01*
G75*
G02*
X72214100Y-57993251I0J249999D01*
G01*
X72214100Y-57093249D01*
G75*
G02*
X72464099Y-56843250I249999J0D01*
G01*
X73114101Y-56843250D01*
G75*
G02*
X73364100Y-57093249I0J-249999D01*
G01*
G37*
G36*
G01*
X75414100Y-57093249D02*
X75414100Y-57993251D01*
G75*
G02*
X75164101Y-58243250I-249999J0D01*
G01*
X74514099Y-58243250D01*
G75*
G02*
X74264100Y-57993251I0J249999D01*
G01*
X74264100Y-57093249D01*
G75*
G02*
X74514099Y-56843250I249999J0D01*
G01*
X75164101Y-56843250D01*
G75*
G02*
X75414100Y-57093249I0J-249999D01*
G01*
G37*
G36*
G01*
X84119600Y-57993251D02*
X84119600Y-57093249D01*
G75*
G02*
X84369599Y-56843250I249999J0D01*
G01*
X85019601Y-56843250D01*
G75*
G02*
X85269600Y-57093249I0J-249999D01*
G01*
X85269600Y-57993251D01*
G75*
G02*
X85019601Y-58243250I-249999J0D01*
G01*
X84369599Y-58243250D01*
G75*
G02*
X84119600Y-57993251I0J249999D01*
G01*
G37*
G36*
G01*
X86169600Y-57993251D02*
X86169600Y-57093249D01*
G75*
G02*
X86419599Y-56843250I249999J0D01*
G01*
X87069601Y-56843250D01*
G75*
G02*
X87319600Y-57093249I0J-249999D01*
G01*
X87319600Y-57993251D01*
G75*
G02*
X87069601Y-58243250I-249999J0D01*
G01*
X86419599Y-58243250D01*
G75*
G02*
X86169600Y-57993251I0J249999D01*
G01*
G37*
D25*
X82260000Y-52284600D03*
X76480000Y-52284600D03*
D26*
X79620000Y-54229600D03*
X79120000Y-54229600D03*
X78620000Y-54229600D03*
X80120000Y-54229600D03*
X78120000Y-54229600D03*
X80620000Y-54229600D03*
X77620000Y-54229600D03*
X81120000Y-54229600D03*
D27*
X81820000Y-54229600D03*
X76920000Y-54229600D03*
X82595000Y-54229600D03*
X76145000Y-54229600D03*
M02*
